<?xml version="1.0" encoding="utf-8"?>
<!-- Generator: Adobe Illustrator 26.3.1, SVG Export Plug-In . SVG Version: 6.00 Build 0)  -->
<svg version="1.1"
	 id="svg2" xmlns:svg="http://www.w3.org/2000/svg" xmlns:sodipodi="http://sodipodi.sourceforge.net/DTD/sodipodi-0.dtd" xmlns:inkscape="http://www.inkscape.org/namespaces/inkscape"
	 xmlns="http://www.w3.org/2000/svg" xmlns:xlink="http://www.w3.org/1999/xlink" x="0px" y="0px" viewBox="0 0 3333.3 3333.3"
	 style="enable-background:new 0 0 3333.3 3333.3;" xml:space="preserve">
<style type="text/css">
	.st0{fill:#FFFFFF;}
</style>
<sodipodi:namedview  bordercolor="#000000" borderopacity="0.25" id="namedview4" inkscape:deskcolor="#d1d1d1" inkscape:pagecheckerboard="0" inkscape:pageopacity="0.0" inkscape:showpageshadow="2" pagecolor="#ffffff">
	</sodipodi:namedview>
<g id="g10" transform="scale(0.1)">
	<path id="path14" class="st0" d="M30597.2,1988.4c621.4,97,1113.9,619.7,1120.2,1278.4c6.1,629-461,1180-1093.3,1291
		c-219.6,38.7-434.1,22.3-630.4-37.2c-10.6-3.3-18.3,9.4-10.1,17c110.5,100.8,212.5,200.3,252.5,289
		c-47.9,218.2-92.8,357.4-199.1,534c55.2,8.8,110.8,15.7,167.1,20.2l175.1,525.8l514.7-47.2l72.2-548.4
		c116.9-31.9,230.1-72.7,337.7-122.2l419.6,369l421.5-292.9l-217.4-510.5c84-83.9,160.8-174.6,229.6-271.1l552.6,114.2l215.3-460.1
		l-448.2-334.9c29.6-112.9,49.6-229.2,59.8-347.9l536.7-171.4l-48.2-504.1l-560-70.6c-32.4-114.8-74.2-225.5-124.8-331l376.8-410.9
		l-299.2-412.8l-521,212.9c-85.9-82.2-178.4-157.5-277.1-224.8l116.7-541.1l-469.9-210.8l-342,438.9
		c-59.8-15.2-120.7-27.5-182.3-37.4c-47.1,105.1-249.1,298.1-249.1,335.1C30492.9,1567.5,30578.4,1821.1,30597.2,1988.4"/>
	<path id="path16" d="M30533,1533.3L30533,1533.3z M30102,5329.3c35.8,4.8,71,8.6,105.2,11.4c16.6,1.5,30.6,12.2,35.6,27.5
		l165,495.2l449.4-41.2l68-516.5c2.2-16,13.8-29.4,29.8-33.5c115-31.3,226.4-71.6,331.4-119.9c14.9-6.7,32.6-4.4,44.7,6.6
		l395.1,347.5l368.2-256l-204.7-480.7c-6.3-14.8-2.9-31.9,8.5-43.4c82.2-82.2,158-171.9,225.1-266.1c9.5-13.3,26.1-19.7,42.1-16.4
		l520.5,107.7l188.2-401.7l-422.1-315.4c-13.3-9.9-19-26.4-14.9-42c28.9-109.9,48.6-224.5,58.5-341.1c1.5-16.3,12.4-30,28.1-34.9
		l505.7-161.6l-42.1-440l-527.5-66.6c-16.3-2.1-29.8-13.5-34.2-29.1c-32-112.7-73.1-221.8-122.4-324.6c-6.8-14.6-4.3-31.7,6.7-43.8
		l354.9-386.9l-261.1-360.5l-490.9,200.4c-15.2,6.2-32.8,2.9-44.6-8.2c-84-80.6-175.5-154.8-271.8-220.6
		c-13.6-9.3-20.1-25.6-16.8-41.2l110.1-509.7l-410.4-184.3l-322.1,413.4c-10.1,13-27,18.6-42.9,14.6c-48.1-12-98.2-22.9-149.4-31.7
		c-33.4,57.5-92.9,127-146.3,189.4c-31.9,37.1-74.5,87-84.3,105.2c2.4,18.1,16.3,69.6,28.9,115.9c24,89.2,56.3,208.5,70.8,307.6
		c647.2,115.5,1118.2,662.8,1124.4,1312.6c6.3,644.9-478.3,1217.1-1127.2,1330.9c-179.8,31.6-358.8,28.6-533.6-8.6
		c76.1,74,143.5,149.4,175.9,221.7c3.4,7.7,4.3,16.3,2.4,24.6C30233,5030.9,30192.3,5167.4,30102,5329.3z M30379,5946.5
		c-17.7,0-33.5-11.1-39-27.8l-166.7-500.4c-46.8-4.5-94.9-10.5-143.1-18.2c-13.4-2.2-24.7-10.5-30.6-22.6c-5.9-12-5.2-26.1,1.7-37.4
		c104-172.4,147-308.1,191.6-508.9c-42.1-82.5-144.2-179.5-237.4-264.5c-17.7-16.3-21.7-41.6-9.6-62c12.2-20.4,36.8-29.7,59.8-22.9
		c198.5,60.3,404.2,72.7,611,36.3c609.9-107.1,1065.7-644.9,1059.7-1251.1c-6-620.6-462.6-1141.7-1085.8-1239.1
		c-18.3-2.9-32.3-17.4-34.2-35.2c-11-98.1-46.4-230-72.5-326.2c-21.7-80.3-32-119.7-32-140.5c0.1-30.1,26.8-62.8,104-152.7
		c56-65.5,125.8-147.1,148.8-198.5c7.4-16.8,25.7-26.4,44.2-23.4c54.4,8.8,107.9,19.3,159.4,31.6l325.7-418
		c11.7-14.9,32.4-19.8,49.7-12l469.9,210.8c17.5,7.8,27,26.4,23.1,44.9l-111.2,515.1c84.5,59.2,165.3,124.8,240.5,195l496.3-202.6
		c17.7-7.3,38-1.5,49.2,13.8l299.1,412.8c11,15.2,9.9,36-2.9,49.9l-358.8,391.2c42.5,91.8,78.8,188.1,108.3,287.3l533.2,67.3
		c19,2.3,33.7,17.4,35.6,36.1l48.2,503.9c1.8,18.7-9.9,36.1-28.1,42l-511,163.2c-10.1,102.9-27.4,204.1-51.8,302.1l426.9,318.9
		c15.2,11.5,20.3,31.6,12.3,48.7l-215.3,460.1c-8,17.1-27.2,26.4-45.8,22.6l-526.1-108.9c-60.5,82.8-127.4,161.9-199.1,235.3
		l206.9,486c7.4,17.4,1.5,37.4-14.1,48.3l-421.5,292.8c-15.5,10.9-36.8,9.9-51-2.7l-399.5-351.4c-93.8,41.6-192.3,77.2-293.4,106
		l-68.7,522.1c-2.4,18.6-17.7,33-36.9,34.9l-514.7,47.2C30381.6,5946.2,30380.4,5946.5,30379,5946.5"/>
	<path id="path18" class="st0" d="M27698.8,1934l-215.6,460.1l448.2,335.1c-29.6,112.9-49.6,229.2-59.8,347.7l-536.7,171.4
		l48.2,504.1l560,70.7c32.6,114.8,74.2,225.4,124.8,331l-376.8,410.9l299.2,412.8l521-213c85.9,82.2,178.4,157.5,277.1,224.8
		l-116.7,541.1l469.9,211.1l342-438.9c61.9,15.5,124.6,28,188.2,38.2c72.5-170.2,233.1-453.9,233.1-522.8
		c-3.4-23.1-197.7-220-320.9-331.7c-476.3-162.7-837.1-584.7-887.1-1108.8c-68.7-716.4,468.9-1351.8,1200.5-1419.2
		c114.4-10.4,226.5-6.4,334.9,10.4c-18.9-167.1-84-424.3-55.2-475.5c56-99.2,153-216.3,200.1-321.7c-57-9.3-114.6-16.4-172.8-21.2
		l-175.1-525.5l-514.7,47.2l-72.1,548.4c-117.2,31.7-230.3,72.7-338,122l-419.6-368.9l-421.5,292.8l217.5,510.5
		c-84.3,84.1-161,174.7-229.6,271.3L27698.8,1934"/>
	<path id="path20" d="M28718.5,5507.6l410.4,184.3l322.1-413.3c10.1-12.7,27-18.5,42.9-14.4c48.8,12.2,100.2,23,153,32.2
		c26.1-58.2,59.7-126,92.4-192.1c49-99.1,115.1-232.5,123.7-277.5c-29.2-40.4-179.8-195-300.7-304.8
		c-501.3-174.7-856.8-621.6-906.4-1140.2c-34.2-357.3,75.6-706.2,309.2-982.4c233.8-276.4,563.5-447,928.3-480.5
		c97.2-8.9,195.1-7.8,291.2,3.4c-6.6-44.3-14.9-92.6-23.3-140c-29.5-167.5-44.9-264.5-20.1-308.1c23.6-42,53.2-85.5,84.8-131.5
		c31.4-46.4,63.9-93.7,89.4-139.2c-38.4-5.3-76.7-9.4-114.6-12.6c-16.3-1.2-30.3-12.2-35.6-27.5l-164.9-494.9l-449.5,41.2l-68,516.5
		c-2.1,16-13.8,29.1-29.6,33.5c-115.1,31.2-226.5,71.6-331.4,119.7c-15.1,7-32.6,4.4-44.9-6.4l-395.1-347.5l-368.2,255.7l205,480.7
		c6.3,14.9,2.9,32.2-8.5,43.6c-82.2,82.1-158,171.7-225.2,266.1c-9.4,13.1-25.8,19.7-42.1,16.3l-520.5-107.7l-188.2,401.7
		l422.1,315.7c13.3,9.9,19,26.3,14.9,42c-28.9,109.9-48.6,224.5-58.5,341.1c-1.5,16-12.4,29.7-28.1,34.9l-505.7,161.5l42.1,440
		l527.5,66.8c16.3,2.1,30,13.5,34.2,29c31.9,112.6,73.1,221.8,122.4,324.6c7.1,14.6,4.5,31.9-6.7,43.9l-354.9,386.9l261.4,360.5
		l490.9-200.7c15.1-6.2,32.6-2.9,44.3,8.3c84,80.5,175.5,154.8,271.8,220.4c13.6,9.3,20.1,25.6,16.8,41.5L28718.5,5507.6z
		 M29141.6,5781.9c-5.7,0-11.7-1.1-17.2-3.7l-469.9-211.1c-17.5-7.8-27-26.4-23.1-44.7l111.2-515.4
		c-84.5-59.1-165.3-124.6-240.3-195l-496.3,202.9c-17.7,7.1-38.1,1.5-49.3-13.8l-299-412.8c-11.2-15.3-9.9-36.1,2.8-49.9
		l358.8-391.3c-42.5-91.8-78.8-188.1-108.3-287.2l-533.2-67.5c-19-2.3-33.7-17.4-35.6-36l-48.2-504.1c-1.8-18.6,9.9-36.1,28.1-42
		l511-163.2c10.1-102.8,27.5-204,51.8-302L27458,2426c-15.2-11.4-20.3-31.6-12.3-48.6l215.3-460.1c8.2-17.1,27.4-26.4,45.8-22.6
		l526.1,108.9c60.5-82.8,127.4-161.9,199.4-235.5l-207.2-486c-7.4-17.4-1.5-37.4,14.1-48.2l421.5-292.9c15.6-10.8,36.9-9.7,51,2.9
		l399.5,351.4c93.8-41.7,192.3-77.2,293.4-106l68.7-522.1c2.4-18.6,17.7-33,36.9-34.9L30025,585c19-1.8,36.9,9.7,42.9,27.5
		l166.7,500.4c49.2,4.5,99.1,10.9,148.8,19c12.4,2.1,23.5,9.7,29.5,20.7c6,10.8,6.6,23.9,1.5,35.2
		c-29.5,65.5-75.9,133.4-120.6,199.1c-30.3,44.7-59.1,86.9-81.2,125.9c-11,26.7,13.3,164.6,29.2,255.7c11.9,67.3,24,137,30.7,195.9
		c1.3,12.6-3.2,24.8-12.4,33.5c-9.4,8.6-21.9,12.6-34.8,10.5c-106.6-16.8-215.9-20.1-324.6-10.3c-343,31.6-652.9,192-872.9,451.9
		c-219.6,259.6-323,587.8-290.8,923.7c46.9,490.4,384.5,912.2,859.7,1074.8c5.4,1.6,10.2,4.5,14.4,8.3
		c3.4,2.9,325.8,299.4,333.8,355.6c0.1,1.8,0.4,3.7,0.4,5.6c0,49.9-50.4,154.5-132.9,320.9c-37.9,76.2-77,155.3-103.4,217.3
		c-7.3,17.1-25.7,27.2-44.3,24.2c-56.9-9.2-112.3-20.1-165.3-32.4l-325.8,417.7C29166.2,5776.3,29154.2,5781.9,29141.6,5781.9"/>
	<path id="path22" class="st0" d="M20672.3,9347.7l39.1,865.4l949.7,166.9c44.9,194.4,107.4,386.8,186.7,575.2l-680.2,672
		l475.8,730.2l908.8-320.9c141.3,149.8,292.9,286.4,454,408.3l-245.8,913.9l784.8,399.4l623.6-723c196.2,59.7,397.2,103,601,130.1
		l254.2,913l883.6-38.3l170.6-930c198.5-43.9,395-105.2,587.3-182.8l59.8-25.3c13.8-291.7-37.6-376-34-442.6
		c-302.8-57.6-889.6-164.3-889.6-164.3c-60.8-150.9-58.5-343.3-105.2-523.4c-932.4,176.6-1924.8-231.1-2423.2-1105
		c-536.1-940.3-300-2139.8,555.7-2816.3c273.7-216.6,578.9-358.5,893.1-433.9c70.6-213,160.3-419.8,292.2-610.4
		c-320.9,50.4-681.3-23.5-1005.3,17.5c-19.4,2.3-35.9-12.6-34.5-31.7c14.9-198.8,20.7-402.3,22.4-605.7
		c-45.4,16.4-90.5,33.4-135.7,51.6l-686.2-666.1l-745.7,465.8l327.7,890.1c-153,138.1-292.4,286.6-416.9,444.4l-933.2-240.7
		l-407.9,768.6l738.3,610.7c-60.9,192.2-105.2,389.1-132.9,588.5L20672.3,9347.7"/>
	<path id="path24" d="M24168.9,12995c3.9,0,8,0.5,12.2,1.8c193.5,58.7,393.6,101.9,594.2,128.6c16.3,2.2,29.8,13.7,34.1,29.1
		l245.5,882.1l818.2-35.4l164.7-898.5c2.9-15.9,15.2-28.5,31.3-32.2c195.2-43.2,390.5-104,580.8-180.7l35.4-14.9
		c6.3-175.1-12.2-268-24.5-330.4c-3.8-19.2-7.1-36-9.1-51.9c-306.7-58.4-851.9-157.5-857.5-158.3c-13.8-2.6-25.6-11.9-30.7-24.8
		c-36.7-91.4-51-193.1-66.1-300.6c-8.8-63.1-17.9-128.1-31.9-191c-972.6,167.6-1944.4-283.9-2428-1132
		c-542.3-950.7-299-2183.3,565.7-2867.2c263.2-208.1,561.6-354.8,886.8-436.1c69.9-206.2,147.7-376,242-526.4
		c-144.3,13.3-294.7,7.1-441,1c-159.7-6.6-324.7-13.5-476.7,5.9c-21.7,2.7-43.2-4-58.8-18.6c-15.6-14.4-23.6-34.9-21.9-55.8
		c12.3-162,19.1-336.5,21.8-544.6c-27.2,10.3-53.2,20.4-78.4,30.5c-15.2,6.2-32.8,2.7-44.6-8.6l-662.9-643.5l-690.4,431.3
		l316.5,859.8c5.6,15.3,1.3,32.3-10.8,43.2c-151.3,136.7-290.1,284.6-412,439.5c-10.2,12.7-27,18.5-43,14.2l-901.4-232.5
		l-377.8,711.6l713.3,589.9c12.7,10.4,17.5,27.2,12.7,42.6c-59.9,189.4-104.1,385.3-131.3,582.2c-2.2,15.9-14,29-29.8,33.2
		l-900.8,240.7l36.2,801.1l917.6,161.3c16.2,2.9,29.1,14.9,32.8,30.8c44.2,190.9,106.2,382.2,184.6,568.6
		c6.3,14.9,2.8,32.2-8.8,43.6l-657.3,649.1l440.6,676.1l878-309.9c15.5-5.5,32.8-1.2,44,10.5c139.6,148.2,290.6,284,448.9,403.5
		c13,9.9,18.6,26.4,14.5,42.1l-237.4,882.7l726.6,370l602.4-698.5C24145.5,13000.2,24157.1,12995,24168.9,12995L24168.9,12995z
		 M25024,14118.4c-18.4,0-34.7-12-39.5-29.6l-247-887.6c-187.2-26.1-373.8-66.4-554.8-120l-606,702.7c-12.3,14.4-33.1,18.5-50.3,9.9
		l-784.8-399.5c-16.9-8.8-25.6-27.8-20.7-46l238.8-888.1c-147-112.9-287.8-239.6-419-377l-883.2,312c-18.3,6.4-38.1-0.4-48.6-16.3
		l-475.8-730.2c-10.2-15.9-8-36.5,5.6-49.8l661.2-653.1c-72-174.2-129.8-352.6-172.6-530.9l-923.2-162.1
		c-18.9-3.4-32.8-19-33.7-37.8l-39.1-865.4c-0.7-18.7,11.7-35.6,30.2-40.5l906.4-241.9c26.7-183.5,68-366,122.5-543.3l-717.6-593.3
		c-14.7-12.2-18.9-32.7-10.1-49.3l408-768.5c8.9-16.6,28.4-25.2,46.9-20.2l906.9,233.8c115.3-144.1,244.7-282,384.9-410.3
		l-318.6-865.1c-6.6-17.7,0.4-37.4,16.6-47.5l745.7-465.9c16.1-10,37.3-7.8,50.9,5.3l666.9,647.5c35.2-13.8,72-27.8,111.8-42
		c12.7-4.5,26.7-2.7,37.6,4.8c11,7.7,17.5,20.1,17.5,33.2c-1.8,230.6-8.8,420.3-21.7,595.6c155.5-18.2,319.5-11.5,478.4-4.9
		c172.3,7.3,350.4,14.6,513.1-10.8c16.3-2.6,32.3,4.5,41.2,18.1c8.8,13.5,8.4,30.8-0.7,43.9c-115.3,166.8-206.4,357.4-287.1,600.4
		c-4.3,13.3-15.5,23.4-29.2,26.7c-322.1,77.2-617.2,220.6-877,425.9c-834,659.5-1068.6,1848.4-545.6,2765.5
		c472.8,829,1429.1,1265.2,2379.6,1085.2c21.2-4,42.1,8.9,47.5,29.6c20.5,78.7,31.7,158.9,42.5,236.4
		c13.4,94.3,25.8,183.9,53.5,261.6c111.4,20.2,601.4,109.6,867,160.2c20.1,3.8,34.2,21.8,33.1,41.7c-1,16.8,3.4,38.2,9.1,67.7
		c13.6,69.1,34.2,173.4,24.7,374.5c-0.7,15.3-10.2,28.9-24.7,35l-59.8,25.2c-186.3,75.1-377.1,135.3-567.8,179.1l-165.9,904
		c-3.4,18.5-19.4,32.2-38.6,33l-883.6,38.3C25025.2,14118.4,25024.6,14118.4,25024,14118.4"/>
	<path id="path26" class="st0" d="M25405.1,6483.1c-113.3,176.1-193.4,364.9-257.7,558.9c921.1-220.7,1922.7,140.2,2461,966.7
		c676.4,1038.2,365.4,2416.9-695.1,3079.1c-249.3,155.8-518,257.4-791.5,309.2c39.1,176.2,58.3,354.1,105.2,523.4
		c7.4,26.8,776.9,181,798.2,192.2c29.2,5.5,34.1,264.3,78.7,465.6l672.9,640.5l745.7-465.9l-327.5-890.1
		c153-138.1,292.3-286.6,416.8-444.4l933.2,240.7l408-768.6l-738.3-610.7c60.8-192.2,105.2-389.1,132.9-588.5l932.4-248.9
		l-39.1-865.3l-949.7-167.1c-44.9-194.4-107.4-386.8-186.8-575.2l680.3-671.7l-475.8-730.2l-908.9,320.7
		c-141-149.8-292.7-286.2-453.8-408.2l245.8-913.9l-784.8-399.5l-623.6,723c-196.3-59.5-397.4-103-601-130.1l-254.2-913l-883.8,38.3
		l-170.5,930.3c-152.2,33.5-302.9,77.7-451.7,131.2c-1.5,202.9-7.3,405.7-22.4,604.1c-1.5,20.1,15.8,35.6,36.2,33
		c302.8-37.9,637.1,24.1,941.3-8.9C25401.9,6437.2,25418.2,6462.8,25405.1,6483.1"/>
	<path id="path28" d="M25405.1,6483.1h0.6H25405.1z M27017.5,12152.4h0.1H27017.5z M27141.6,12558.2l640.6,609.7l690.8-431.4
		l-316.5-859.8c-5.6-15.2-1.3-32.2,10.8-43.1c151.3-136.7,289.9-284.6,412-439.6c10.1-12.7,27-18.5,42.9-14.2l901.5,232.5
		l377.8-711.6l-713.3-589.9c-12.7-10.4-17.7-27.2-12.7-42.6c59.9-189.5,104.1-385.4,131.3-581.9c2.2-16,14-29.1,29.8-33.4
		l900.8-240.4l-36.3-801.3l-917.3-161.3c-16.3-2.9-29.2-14.9-32.8-30.6c-44.2-191-106.2-382.4-184.6-568.8
		c-6.3-14.9-2.8-32.2,8.8-43.6l657.1-649l-440.4-676.3l-878,309.9c-15.5,5.5-33,1.5-44-10.4c-139.7-148.3-290.6-284-448.9-403.8
		c-13-9.9-18.9-26.4-14.5-42l237.4-882.8l-726.7-370l-602.4,698.5c-10.6,12.5-27.8,17.1-43.5,12.5
		c-193.5-58.6-393.5-101.9-594.2-128.6c-16.3-2.2-29.8-13.7-34.1-29.1l-245.5-882.1l-818.2,35.6l-164.7,898.5
		c-2.9,15.9-15.2,28.5-31.3,31.9c-139.6,31.1-280.7,71.3-420.2,120.4c-2.1,218-8.9,399.4-21.4,567.7
		c155.5-18.2,319.7-11.5,478.4-4.9c151.3,6.4,307.5,13,452.8-2.9c27.2-2.9,53,9.3,67.2,31.7c14.4,22.4,14.4,50.4-0.1,72.9l0,0
		c-89.6,139-163.6,293.8-230.4,482.3c942.4-195.3,1913,200.7,2433.6,1000.1c333.1,511.2,442.8,1118.8,309.1,1710.9
		c-133.6,592.2-494.6,1097.9-1016.6,1423.9c-235.4,147.1-492.8,250.1-765.1,306.6c12.3,60.1,22.9,120,33.1,178.6
		c17.3,99.5,34,193.7,58.7,286.7c69.4,25,380.2,92.5,552.2,129.8c167.1,36.3,207.9,45.4,223,50.8c41.4,10.8,46.9,60.3,64.4,212.9
		C27111.1,12368.8,27122.7,12469.5,27141.6,12558.2L27141.6,12558.2z M27776.8,13259.2c-10.2,0-20.7-3.8-28.5-11.4l-672.9-640.5
		c-5.7-5.5-9.6-12.6-11.6-20.2c-21.1-95.6-33.5-203.7-43.5-290.8c-6.3-55.4-14.1-122.7-21.2-149.3c-31.7-7.8-118.3-26.7-202.5-44.9
		c-597.9-129.8-599.7-137-609.2-170.9c-28.4-101.8-46.9-208-64.8-310.5c-12.3-70.6-25.2-143.5-40.9-215c-2.4-10.5-0.4-21.5,5.7-30.6
		c6.1-8.9,15.6-15.3,26.4-17.4c277.4-52.5,538.9-154.7,777.4-303.6c503.6-314.6,851.9-802.3,980.9-1373.6
		c129-571,22.9-1157.1-298.3-1650.3c-515.2-790.9-1486.5-1172.3-2416.8-949.2c-14.4,3.4-29.6-1.1-39.7-11.6
		c-10.2-10.8-13.6-25.9-8.9-39.8c72-216.7,151.3-391.5,248.8-547.4c-144.1,13.3-294.7,7.1-441,1c-158.9-6.6-323.5-13.5-475.2,5.6
		c-21.9,2.7-43.7-4.2-59.8-19c-15.8-14.8-24-35.4-22.4-56.9c13.3-176.8,20.3-367.8,22.2-601.3c0-16.8,10.8-31.7,26.8-37.4
		c142.5-51.4,287.1-94,430.3-126.8l165.9-904c3.4-18.6,19.4-32.3,38.6-33.2l883.6-38.2c18.6-1,36.3,11.4,41.4,29.6l247,887.3
		c187.4,26.3,373.8,66.6,554.8,120l606-702.7c12.3-14.4,33.1-18.5,50.2-9.7l784.8,399.5c17.2,8.6,25.7,27.5,20.8,45.8l-238.8,888.1
		c147,113.2,287.8,239.6,419,377l883.2-311.8c18-6.4,38.1,0.1,48.5,16l475.8,730.2c10.5,15.9,8,36.7-5.4,49.9l-661.2,652.9
		c72,174.2,129.7,352.6,172.3,530.9l923.2,162.4c19,3.3,33,19,34,37.8l39.1,865.3c0.7,18.7-11.7,35.6-30.2,40.5l-906.4,241.9
		c-26.7,183.3-68,365.7-122.5,543.3l717.6,593.4c14.7,12,18.9,32.4,9.9,49.1l-407.9,768.5c-8.9,16.8-28.4,25.2-46.9,20.4
		l-906.9-233.8c-115.6,143.9-244.8,281.9-384.9,410.3l318.4,864.9c6.6,17.7-0.4,37.4-16.3,47.6l-745.7,465.8
		C27792.1,13257.1,27784.4,13259.2,27776.8,13259.2"/>
	<path id="path30" d="M29978.8,12378.7c-7.7,0-15.5-2.2-22.5-6.7c-18.9-12.2-24-37.2-11.6-55.7c44.9-66.2,88.7-134.2,130.2-202.4
		c11.6-19,36.9-25.2,56.3-13.8c19.4,11.5,25.7,36.1,14,55.1c-42.1,69.1-86.6,138.1-132,205.4
		C30005.4,12372.4,29992.2,12378.7,29978.8,12378.7"/>
	<path id="path32" d="M29340.4,13155.2c-10.2,0-20.5-3.7-28.5-11.4c-16.2-15.5-16.6-40.9-1-56.8
		c117.2-118.1,229.8-242.9,335.3-371.1c14.1-17.1,40.1-19.8,57.6-6c17.7,13.8,20.5,39.3,6.3,56.5
		c-107.2,130.1-221.5,256.7-340.4,376.5C29361.8,13151.2,29351.2,13155.2,29340.4,13155.2z M28566.5,13802.8
		c-12.9,0-25.7-5.9-33.5-17c-13.3-18.1-8.8-43.2,9.9-56c137.4-94.7,271.6-197,399.5-303.8c17.2-14.4,43-12.6,57.7,4.4
		c14.7,16.8,12.7,42.1-4.6,56.5c-129.5,108.5-266,212.4-405.3,308.5C28583,13800.4,28574.7,13802.8,28566.5,13802.8L28566.5,13802.8
		z M27683.3,14298.6c-15.6,0-30.6-8.8-37.3-23.5c-9.5-20.2-0.4-44.2,20.3-53.2c152.7-68,304.2-143.9,449.9-225.9
		c19.7-11.1,44.7-4.4,56,14.8c11.2,19.3,4.5,43.8-15.2,54.9c-148,83.1-301.7,160.2-456.8,229.3
		C27694.9,14297.4,27689,14298.6,27683.3,14298.6L27683.3,14298.6z M26721.4,14624.1c-18.4,0-35.2-12.2-39.8-30.7
		c-5.2-21.5,8.2-43.2,30.2-48.6c163.2-38.9,326.4-85.8,485.1-139.6c21.2-7.1,44.7,3.8,52.1,24.8c7.3,20.9-4.1,43.9-25.6,51
		c-161,54.6-326.8,102.2-492.4,141.8C26728,14623.7,26724.6,14624.1,26721.4,14624.1z M25714.3,14768.1c-21.7,0-39.7-16.6-40.8-38.2
		c-1.3-22,16.2-41,38.7-42.1c168.1-8.6,337.4-24.8,503.4-48.6c22.2-3.3,43.2,11.9,46.5,33.9c3.2,21.9-12.3,42.3-34.8,45.4
		c-168.4,24.1-340.2,40.6-510.8,49.3C25715.8,14768.1,25715,14768.1,25714.3,14768.1L25714.3,14768.1z M25204.7,14770.8
		c-0.6,0-1.1,0-1.7,0c-170.6-6.7-342.7-21.3-511.5-43.4c-22.4-2.9-38.1-23.1-35.2-45c2.9-22,23.9-37.4,46.2-34.5
		c166.1,21.8,335.8,36.1,504,42.7c22.5,1,40.2,19.7,39.3,41.7C25244.8,14754,25226.8,14770.8,25204.7,14770.8"/>
	<path id="path34" d="M24192.8,14637.8c-3.2,0-6.1-0.4-9.4-1.1c-79.9-18.1-160.8-38.3-240.2-60.1c-21.8-6-34.5-28-28.5-49.7
		c6.1-21.3,28.6-33.8,50.7-27.8c78.1,21.3,157.7,41.2,236.4,59.1c22.2,5.1,35.8,26.7,30.7,48.2
		C24228.2,14625.2,24211.4,14637.8,24192.8,14637.8"/>
	<path id="path36" d="M20038.5,8608.1c-2.2,0-4.3-0.1-6.3-0.4c-22.5-3.4-37.9-23.9-34.2-46c12.7-79.9,27.4-160.4,43.6-239
		c4.5-21.8,26.1-35.7,48.2-31.3c22.2,4.4,36.5,25.6,32,47.2c-15.8,77.6-30.3,156.7-42.9,235.5
		C20075.7,8594,20058.2,8608.1,20038.5,8608.1"/>
	<path id="path38" d="M21834.3,5416.3c-11.3,0-22.8-4.8-30.9-13.8c-14.9-16.6-13.3-42,3.9-56.5c127.6-109.6,262-214.5,399.5-312.1
		c18.3-13,44-8.9,57.1,8.9c13.3,18.1,9.1,43.1-9.1,56.2c-135.4,95.9-267.7,199.4-393.5,307.4
		C21853.4,5413,21843.8,5416.3,21834.3,5416.3L21834.3,5416.3z M21137.1,6136.4c-8.9,0-17.9-2.7-25.3-8.6
		c-17.9-13.7-20.8-38.9-6.8-56.4c104.7-130.7,217.3-257.9,334.1-378.7c15.5-16,41.5-16.8,58-1.5c16.3,15.2,17.2,40.6,1.5,56.8
		c-115.1,118.9-225.8,244.5-329.1,373.1C21161.4,6131.1,21149.2,6136.4,21137.1,6136.4z M20587.4,6970.1c-6.3,0-12.9-1.5-18.9-4.5
		c-20.1-10.4-27.9-34.6-17.3-54.2c78.2-147.4,164.7-292.9,257-432.5c12.3-18.7,37.6-24.1,56.6-12s24.5,36.8,12.2,55.4
		c-90.7,137.8-175.9,281.2-253,426.2C20616.6,6962,20602.2,6970.1,20587.4,6970.1L20587.4,6970.1z M20205.2,7889
		c-3.9,0-7.8-0.5-11.7-1.6c-21.8-6.6-34.1-28.9-27.5-50.2c49-158.9,106.3-317.6,170.5-471.8c8.5-20.7,32.4-30.5,53.5-22
		c20.8,8.3,30.9,31.7,22.5,52.4c-63.2,151.7-119.6,308.1-167.8,464.7C20239.2,7877.9,20223,7889,20205.2,7889"/>
	<path id="path40" d="M22655.3,4833.9c-14,0-27.8-7.1-35.4-19.8c-11.6-19-5-43.6,14.5-54.9c70.6-41,143.5-81,216.2-118.8
		c20.1-10.5,44.8-3.1,55.5,16.6c10.6,19.6,2.9,43.8-16.9,54.2c-71.7,37.4-143.2,76.8-212.9,117.1
		C22669.5,4831.9,22662.3,4833.9,22655.3,4833.9"/>
	<path id="path42" d="M33085.2,4941.7c-6.7,0-13.6-1.6-19.7-5.1c-20-10.8-27-35.2-16.1-54.6c78.7-138.3,147.1-283.5,204.1-431.4
		c8-20.8,31.4-31.3,53-23.5c21.1,7.8,31.9,31.1,23.9,51.9c-58.3,151.6-128.7,300.5-209.2,442.2
		C33113.7,4934.1,33099.7,4941.7,33085.2,4941.7z M32489.2,5704.2c-10.6,0-21.4-4-29.5-12c-15.8-16-15.5-41.5,0.7-56.9
		c115.8-110.4,224.5-229.9,322.6-355.6c13.8-17.7,39.5-20.9,57.4-7.5c18,13.5,21.4,38.7,7.7,56.4
		c-100.6,128.6-211.8,251.2-330.4,364.4C32509.9,5700.4,32499.4,5704.2,32489.2,5704.2L32489.2,5704.2z M31694.9,6267
		c-14.9,0-29.1-7.8-36.5-21.8c-10.5-19.6-2.7-43.8,17.5-54.2c143.1-72.9,282.1-156.9,413-249.7c18.4-13,44-8.9,57.4,8.9
		c13.3,18.1,9.1,43.1-9.4,56.2c-134.1,95.1-276.7,181.2-423.2,256C31707.8,6265.6,31701.2,6267,31694.9,6267L31694.9,6267z
		 M30768.2,6580.6c-19.4,0-36.5-13.5-40.2-32.7c-4.3-21.9,10.5-42.8,32.8-46.9c158.7-29.1,316.8-70.2,469.1-121.9
		c21.4-7.3,44.8,3.8,52.1,24.8c7.4,20.9-3.9,43.8-25.3,51c-156.4,53-318,94.8-480.8,124.8
		C30773.3,6580.4,30770.8,6580.6,30768.2,6580.6"/>
	<path id="path44" d="M29375.1,137.6c-18.6,0-35.4-12.5-39.8-31.1c-5.2-21.5,8.5-43.2,30.6-48.2c106.1-24.5,214.8-43.8,323-58
		c22.4-2.9,43,12.5,46,34.5c2.9,21.9-12.9,42.1-35.2,45c-105.6,13.8-211.7,32.8-315.2,56.5
		C29381.2,137.2,29378.3,137.6,29375.1,137.6L29375.1,137.6z M28463.9,491c-14.4,0-28.1-7.1-35.6-20.1
		c-11.3-19.2-4.6-43.8,14.9-54.7c143.5-81.1,294-152.7,447.7-212.2c21.1-8.2,44.9,1.8,53.2,22.4c8.4,20.7-2.1,43.9-23.1,52.1
		c-149.9,58.2-296.8,127.9-436.9,207C28477.9,489.4,28470.8,491,28463.9,491z M27695.2,1087.2c-10.1,0-20.1-3.7-28.1-10.9
		c-16.3-15.2-17.3-40.6-1.7-56.8c113.5-118.1,236.8-228.9,366.5-329.5c17.7-13.8,43.6-10.9,57.6,6.4c14.1,17.5,11.2,42.7-6.7,56.5
		c-126.5,98.1-246.9,206.3-357.7,321.7C27716.9,1082.9,27706.2,1087.2,27695.2,1087.2L27695.2,1087.2z M27133.7,1874.6
		c-6.1,0-12.4-1.5-18.3-4.2c-20.3-10-28.5-34.1-18.4-54c73.9-144.9,159.4-285.7,254.4-418.8c12.9-18.1,38.6-22.6,57-9.9
		c18.6,12.7,23.1,37.8,10.2,55.8c-92.8,129.8-176.2,267.5-248.3,408.8C27163.1,1866.4,27148.8,1874.6,27133.7,1874.6L27133.7,1874.6
		z M26828.9,2787.2c-2.2,0-4.5-0.1-6.8-0.5c-22.4-3.8-37.3-24.5-33.5-46.4c27.9-159.9,68-319.2,119.5-473
		c7.1-21.2,30.2-32.7,51.8-25.7c21.4,7,33.1,29.6,26.3,50.8c-50.3,150.1-89.4,305.4-116.7,461.5
		C26866,2773.4,26848.7,2787.2,26828.9,2787.2L26828.9,2787.2z M26805.9,3747.2c-20.5,0-38.1-14.9-40.8-35.2
		c-16.6-134.5-25.2-271.6-25.2-407.9c0-26.4,0.4-52.7,1-78.8c0.6-22.3,19.6-39.5,41.9-39.3c22.8,0.5,40.7,19,40.1,41
		c-0.6,25.6-1,51.3-1,77c0,133,8.4,266.9,24.6,398c2.8,22-13.3,42.1-35.6,44.7C26809.3,3747.2,26807.6,3747.2,26805.9,3747.2"/>
	<path id="path46" d="M14294.5,8668l710.5,531.6l300.7-691.7L14294.5,8668z M15022,9303.1c-8.8,0-17.5-2.9-24.7-8.2l-828.3-619.5
		c-13-9.9-18.9-26.3-15-41.7c4.1-15.5,17.2-27.2,33.1-29.7l1178.9-186.8c14.7-2.3,29.6,3.4,38.7,14.9s11.3,27,5.4,40.5l-350.4,806.2
		c-5,11.5-15.1,19.8-27.2,23.1C15029.1,9302.7,15025.5,9303.1,15022,9303.1"/>
	<path id="path48" d="M15261.1,7745c-1.5,0-3.2,0-4.9-0.1c-22.4-2.6-38.6-22.4-35.9-44.5l719.7-6111.9c2.7-21.9,22.9-37.8,45.4-35.2
		c22.5,2.6,38.6,22.4,36.2,44.5l-719.9,6111.7C15299.2,7729.9,15281.5,7745,15261.1,7745"/>
	<path id="path50" d="M14059.2,7685.3c-17.3,0-33.4-10.9-39-27.9l-1374.9-4221.5c-6.8-21.2,5-43.8,26.4-50.5
		c21.7-6.7,44.7,4.9,51.6,26.1L14098.2,7633c6.8,21.2-5,43.8-26.7,50.5C14067.6,7684.8,14063.5,7685.3,14059.2,7685.3"/>
	<path id="path52" d="M13101.2,8069.5c-212,0-361.5-53.8-443.8-160.2c-59.7-76.8-60.5-152.3-61.5-218.9
		c-0.7-56.4-1.3-109.6-33.7-167.6c-61.5-111-178.1-132.3-313-156.9c-131.9-24.2-268-49.1-360.9-164.6
		c-112.2-139.6-69.7-299.5-28.6-454.3c38.4-144.6,74.8-281.2-3.5-405.6c-89.1-141.6-264.8-166-450.8-192
		c-197.3-27.5-401.1-56-508.9-231.6c-90.1-147.2-53.5-305.5-21.1-445.5c30.6-131.8,57-245.6-12.7-336.6
		c-97.1-127-336.9-156.4-712.7-87.2c-22.4,4.2-43.7-10.3-47.9-32.2c-4.2-21.8,10.5-42.7,32.7-46.9
		c414.8-76.2,674.3-37.6,793.5,118.1c92.4,120.5,59.1,263.9,27,402.7c-30.5,131.2-61.9,266.9,11.3,386.3
		c87.6,143,263.7,167.5,450.1,193.6c196.5,27.4,399.6,55.7,509,229.3c96.7,153.7,52.3,320.6,13.1,467.8
		c-39.4,148.3-73.4,276.3,13.7,384.6c73.8,91.5,189.2,112.7,311.3,135.2c142.5,26.1,289.9,53,370.1,197.4
		c42.1,75.7,42.9,144.5,43.6,205.2c1,62,1.5,115.5,44.7,171.3c67.5,86.9,198.5,130.4,389.4,128.5c0.1,0,0.1,0,0.4,0
		c22.5,0,40.8,17.7,40.9,39.8c0.1,22-17.9,40.4-40.7,40.5C13109.1,8069.5,13105.1,8069.5,13101.2,8069.5"/>
	<path id="path54" d="M31944.3,23855.9c-5.2,0-10.6-1.1-15.8-3.1c-20.8-8.6-30.7-32.2-21.9-52.5
		c598.2-1401.6,864.2-2882.6,790.7-4401.4c-1.1-22,16.3-41,39-42c21.9-1.2,41.9,16,43,38.2c73.9,1530.8-194.1,3023.4-797,4436
		C31975.6,23846.6,31960.4,23855.9,31944.3,23855.9"/>
	<path id="path56" d="M31309.5,23166.3c-5,0-10.1-1-14.9-2.7c-21.2-8.1-31.7-31.3-23.3-52c1318-3303.5,331-7642.1,320.9-7685.6
		c-5-21.8,8.8-43.2,30.7-48.2c22.4-4.9,44.2,8.6,49.2,30.2c10.2,43.6,1002.7,4406.5-324.6,7732.7
		C31341.4,23156.6,31326,23166.3,31309.5,23166.3"/>
	<path id="path58" d="M9590.4,2958.9c-2.1,0-4.3-0.1-6.4-0.5c-22.4-3.4-37.6-24.1-34.1-46l50-307.6c3.5-21.9,24.6-36.8,46.9-33.4
		c22.4,3.4,37.6,24.1,34.1,46l-50,307.6C9627.7,2944.8,9610.2,2958.9,9590.4,2958.9"/>
	<path id="path60" d="M9473.8,3675.5c-2.1,0-4.3-0.1-6.6-0.4c-22.4-3.4-37.6-24.1-34.1-46l50-307.7c3.6-21.9,24.7-36.8,46.9-33.4
		c22.4,3.7,37.6,24.1,34.1,46.1l-50,307.6C9511,3661.5,9493.5,3675.5,9473.8,3675.5"/>
	<path id="path62" d="M9348.2,3130.8c-2.1,0-4.3-0.1-6.6-0.4l-314.1-49.1c-22.4-3.4-37.6-24.1-34.1-46c3.5-21.9,24.7-36.8,46.9-33.4
		l314.1,49.1c22.4,3.4,37.6,24.1,34.1,46C9385.5,3116.7,9368.1,3130.8,9348.2,3130.8"/>
	<path id="path64" d="M10080.1,3245c-2.1,0-4.3-0.1-6.6-0.5l-314.2-48.8c-22.4-3.4-37.6-24.1-34.1-46c3.5-21.9,24.6-36.8,46.9-33.4
		l314.2,49.1c22.4,3.4,37.6,24.1,34.1,46C10117.4,3230.9,10100,3245,10080.1,3245"/>
	<path id="path66" d="M31139.6,14383.2h0.4H31139.6z M31264.5,14397c-36.9,0-73.4,7.7-108,22.8c-136.2,59.8-198,219.5-138,355.7
		c29.5,66.4,82.9,117.3,150.8,143c66.1,25.3,138.6,23.4,203.4-5.1c136.2-59.8,198-219.5,138-355.7c-29.5-66.4-82.9-117.3-150.8-143
		C31329,14402.9,31296.7,14397,31264.5,14397z M31264.7,15016.7c-42.3,0-84.8-7.8-125.3-23.4c-88.4-33.5-158.2-99.6-196.2-186.1
		c-77.7-176.2,2.9-383,179.8-460.7c85.1-37.6,179.8-40,266.7-6.7c88.4,33.5,158,99.7,196.2,186.1c77.7,176.4-2.9,383-179.8,460.7
		C31360.8,15006.7,31312.8,15016.7,31264.7,15016.7"/>
	<path id="path68" d="M1458.3,21362.5c-18.4,0-35.3-12.5-39.8-30.8c-831.9-3386.8-506.1-7039.5-502.7-7076.1
		c2.1-22,22.1-38.4,44.6-36.3c22.6,2.1,39.3,21.5,37.2,43.6c-3.4,36.3-327.9,3676.4,500.8,7049.9c5.3,21.5-8.2,43.2-30.3,48.3
		C1464.7,21362.1,1461.5,21362.5,1458.3,21362.5"/>
	<path id="path70" d="M1043.4,22618.2c-17.5,0-33.7-10.9-39.1-28c-876.9-2736.9-894.4-6008.3-894.5-6041
		c-0.1-22,18.3-40.1,40.9-40.4h0.1c22.6,0,40.9,18.1,40.9,40.1c0.1,32.7,17.7,3292,890.7,6017c6.8,21.2-5.3,43.6-26.8,50.4
		C1051.7,22617.6,1047.5,22618.2,1043.4,22618.2"/>
	<path id="path72" d="M734.9,13525.6l819.2,59.1l-261.4-841.6L734.9,13525.6z M1610.9,13669.1c-1,0-2,0-2.9,0l-950.8-68.5
		c-14.7-1.1-27.7-9.9-34-22.9c-6.3-13-5-28.5,3.4-40.4l647.5-908.1c8.9-12.6,24.5-19,40-16.6c15.5,2.3,28.2,13.3,32.8,27.9
		l303.3,976.8c3.9,12.6,1.3,26.4-7.1,36.8C1635,13663.6,1623.3,13669.1,1610.9,13669.1"/>
	<path id="path74" class="st0" d="M19412.2,30303.4H5809.3c-270.6,0-492.1-216.9-492.1-482v-14726
		c0-2054,1716.1-3734.7,3813.6-3734.7h6652.3c2266.7,0,4121.3,1816.1,4121.3,4035.8v14424.8
		C19904.4,30086.5,19682.8,30303.4,19412.2,30303.4"/>
	<path id="path76" d="M9130.8,11400.9c-2080.2,0-3772.7,1657.4-3772.7,3694.4v14726.1c0,243.5,202.3,441.8,451.2,441.8h13602.9
		c248.8,0,451.2-198.3,451.2-441.8v-14425c0-2203.3-1830.4-3995.7-4080.4-3995.7H9130.8V11400.9z M19412.2,30343.6H5809.3
		c-294,0-533-234.2-533-522.1V15095.4c0-2081.4,1729.2-3774.7,3854.7-3774.7h6652.3c2295.3,0,4162.2,1828.4,4162.2,4075.9v14424.8
		C19945.3,30109.4,19706.1,30343.6,19412.2,30343.6"/>
	<path id="path78" d="M9929.1,19102.6c0,0-2822.8,9757.3-2772.7,10269.2c0,0,2790.6,434.7,5834.7,931.6
		c2393.6,390.6,4359,388,6342.4-745.4l1449.2-10348.4c0,0-2445.9-649.8-5192-799.2C12844.6,18261,9929.1,19102.6,9929.1,19102.6"/>
	<path id="path80" d="M3258.4,21779.7c2033.4,789.8,4147.9,1402.6,6431.5,1646.1l190.7-3799L3258.4,21779.7"/>
	<path id="path82" d="M19880.7,19584.3c40.7,64-412.6,3544.9-412.6,3544.9c2451.3-2.6,5223.9-673.7,8204.2-1777.8L19880.7,19584.3"
		/>
	<path id="path84" class="st0" d="M13442.7,16913.1l-281.5,1633.7l-978.1,305.3c0,0,617.7,1116.4,2819.1,1073.7
		c2201.4-42.7,2582.8-1219.3,2582.8-1219.3l-1449.4-402.8l-218-1094.2L13442.7,16913.1"/>
	<path id="path86" d="M13161.3,18546.8h0.4H13161.3z M12246.5,18874.4c140.3,199.9,850.2,1048.1,2754.9,1011.3
		c1916-37.2,2437.2-951.8,2528.5-1152.6l-1405.6-390.6c-14.7-4.2-26.1-16.3-28.9-31.1l-212.4-1065.6l-2406.5-287.9l-275,1595.5
		c-2.7,14.9-13.4,27.2-28.1,31.7L12246.5,18874.4z M14878.2,19967c-2099.9,0-2705.8-1050.4-2730.9-1095.8c-6-10.5-6.7-23.1-2.1-34.3
		c4.5-10.9,14-19.6,25.6-23.1l954.2-297.7l277.4-1609.5c3.8-21.2,23.9-35.7,45.4-33.2l2474.8,296.2c17.7,2.1,31.9,14.9,35.3,32.2
		l213.1,1070l1425.2,396.1c10.6,2.9,19.6,10,25,19.6c5.2,9.7,6.3,20.9,2.9,31.2c-16.1,49.3-415.8,1204.6-2621.1,1247.3
		C14961,19966.5,14919.3,19967,14878.2,19967"/>
	<path id="path88" d="M13734.9,16515.8c-361.6,113.8-694.7,175.7-1000.3-91c-136.4-118.9-241.4-267.6-345.3-414.9
		c-156.1-221.2-312.3-442.8-468.2-664c-58.3-82.6-116.5-165.4-167.5-252.4c-246.8-421.8-308.1-920-364.5-1402.9
		c-72.1-617.2,276.4-1240.6,596.5-1764.4c153.3-250.5,328.8-493,560.3-676.6c240.2-190.3,499.5-234.2,789-315.1
		c367.2-102.8,752.4-129.6,1132.7-128.1c608.2,2.6,1271.6,103.4,1683.5,541.7c302.4-155.3,624.8-279.1,962.4-328.2
		c337.6-49.1,691.9-20.2,1002.7,118.1c344.8,153.7,624.4,442.4,762.9,787.6c152,378.7,62,711.5,28.9,1096.2
		c-31.4,366.3-199.4,679.3-317.5,1020.9c-108.3,313.2-151.9,649.8-262,966.1c-68.7,197-149.8,394.2-286,554
		c-136.2,159.7-336.6,278.6-549,274.2c-247.5-5.3-462.6-172.8-611.9-365.7c-149.4-193.2-252.8-417.2-401.8-610.4
		c-87.9-114-195.6-219.3-331.4-271.1c-538.6-205.6-926.2,667.8-1173.8,992.3C14650.4,16006.1,14258.4,16351,13734.9,16515.8"/>
	<path id="path90" class="st0" d="M17922.7,15446.7c-102.1-78.9-354.3-7.5-441.4,38.4c7.1-415.9-51.8-866.8-282.9-1225.5
		c-99.5-154.2-224.5-255-362.7-372.2c-81.7-69.1-420.4-402.4-367.6-525.5c-313.1,728.9-1064.1,1206.8-1846.5,1402.9
		c-306.1,76.8-626.1,119.2-907.2,260.5c-171,86.1-328.1,218.5-420.8,385.3c-78.7,141.2-35.1,366.7-207.4,257.9
		c-131.3-82.8-412.5-546.2-614.1-438.4c-300.3,160.4,185.1,1778.7,770,1834.4c344.4,945.1,766.1,1879.6,1871.2,1968
		c1381.5,110.4,1917-579.7,2271.4-2303C17761.3,16386.5,18221,15677.3,17922.7,15446.7"/>
	<path id="path92" d="M12537,15254.5c-15.8,0-31.2,3.4-45.3,10.9c-65.4,35-101.2,215.5-33.5,540.1
		c116.9,561.5,451.4,1187.2,788,1219.3c15.6,1.6,29.2,11.9,34.7,26.4c355,974.2,762.8,1855.5,1835.8,1941.3
		c1295,103.4,1857.4-469.4,2227.9-2270.9c1.7-8.2,6-15.7,12.3-21.3c307.5-280.2,632.1-761.3,620.2-1050.1
		c-3.2-76.5-29.2-132.6-79.9-171.9c-78.2-60.3-304.5-6.2-396.4,42.6c-12.9,6.7-28.4,6.4-40.8-1.1c-12.4-7.3-20-20.7-19.7-35
		c8.8-500.2-84.3-905.1-276.5-1203.4c-89.8-139.4-200.5-232.7-328.5-340.8l-26.7-22.4c-3.4-3.1-269-236.6-358.1-423.2
		c-316.2,615.6-985.8,1100.1-1818.8,1309.1c-79.8,19.8-161.5,37.9-240.7,55.1c-223.4,49.1-454.2,99.6-657.8,202.1
		c-177.7,89.2-320.9,220.4-403.7,368.9c-22.8,41-34.8,93.6-45.7,140c-16.3,71.3-31.9,138.9-87.2,160.9c-48.1,19.3-98.8-7-132.9-28.5
		c-44.9-28.5-100.2-90.7-164.3-162.7C12790.2,15416.8,12645.7,15254.5,12537,15254.5L12537,15254.5z M15388.2,19084.1
		c-89.3,0-181.6-3.8-278.3-11.6c-1112.1-88.8-1549.4-1019.2-1898-1971.2c-405.2-67.2-730.5-781.5-834.3-1279.7
		c-33-158.7-91.8-537.5,74.8-626.5c168.9-90.3,357.6,121.5,509,291.8c57.4,64.6,111.8,125.7,147,147.9
		c42.1,26.7,55.8,22.3,57.1,21.8c15.8-6.4,29.5-65.3,38.4-104.4c11.9-51.4,25.3-109.9,53.7-160.8c90.4-162.5,245.9-305.3,438-401.9
		c213.1-107.1,449.2-158.9,677.5-208.9c78.4-17.1,159.7-35,238.2-54.7c860.6-215.8,1540.5-731.6,1818.8-1379.6
		c8.8-20.7,32.8-30.1,53.7-21.5c20.8,8.6,30.7,32.2,21.8,52.5c-32.6,76.8,211.8,357,356.7,479.8l26.4,22.3
		c127.4,107.7,247.7,209.5,344.1,358.9c192.8,299,290.1,697.4,289.9,1185c119.6-44.5,324.3-86.3,425.2-8.2
		c69.7,53.8,106.9,131.8,111.1,231.5c14.1,344.1-360.5,847.9-636.7,1103.2C17073,18438.4,16526.2,19084.1,15388.2,19084.1"/>
	<path id="path94" class="st0" d="M13045.8,15889.9c-127-453.2-630-1700.1-287.1-1994.5c400.3-343.6,184.6-659.4,169.3-678.8
		c-1.1-0.1-1.7-0.1-2.7-0.4l-639,472.2c-24.6,18.2-57.1-8.8-43-35.4c120-223.3,388-720.3,500.9-907.3
		c107.7-178.6,90.1-459.3,72.8-597.7c-4.5-35.4-47.9-50.8-74.5-26.3l-805.2,736c0,0,461.2-598.3,541.7-848.7
		c50.9-158-3.5-286.9-50.3-360.7c-22.8-35.7-163.6,4.9-189.6,38.3L11068.7,13266c-221.3,285.1-246.1,672.5-62.9,982.4L11460,15408
		c148.9,252.2,162.9,468.4,136.7,749.7c-15.1,162.4-576.4,310.5-738.2,348.1c-1907.7,443.5-8447.9,1295.5-8303.4,4279.2
		c75.2,1552.2,2646,1402.1,4309.7,880.2c2850.9-894.2,5703.5-4392.8,5703.5-4392.8S13173,16343.1,13045.8,15889.9"/>
	<path id="path96" d="M12568.5,17272.1h0.4H12568.5z M11497.2,15390.5c152.6,259.6,166.8,487.5,140.4,770.6
		c-17.6,188.8-544.1,331.1-769.6,383.5c-245.6,57.1-568.3,121.1-941.6,195c-1249.1,247.5-3136.8,621.6-4672.4,1253.3
		c-1817.1,747.3-2711.4,1686.1-2657.8,2790c17.5,361.2,176.8,646.8,473.5,848.5c817.4,555.5,2533.8,386.9,3782.6-4.8
		c2781.8-872.4,5605.7-4284.3,5682.7-4377.9c29.5-45.8,589.5-926.7,471.2-1348.4l0,0c-22.5-80.3-57-185.5-96.8-307.7
		c-191-584.7-479.5-1468.4-177.7-1727.7c309.6-265.6,228.6-505.8,183.7-591.2l-604.2,446.6c-26.4,19.6-62.5,18.5-87.3-2.3
		c-25.2-20.8-31.9-55.3-16.6-83.7c112.8-210.2,387.3-719.6,501.8-909.1c104.1-172.4,81.7-457.7,67.5-572.3l-33.7-31.2l27.9,29.1
		l-805.1,736.1c-15.6,14.2-39.7,14.4-55.5,0.5c-15.8-14.1-18-37.4-5.3-54c4.6-6,458-595.9,535.4-836.7c44-136.4,2.1-249.6-42.6-322
		c-25.8-5.1-109.1,18.2-125.8,36.3l-1169.8,1578.3c-212.4,273.8-236,642-60.6,938.8c1.1,1.8,2.1,3.7,2.8,5.6L11497.2,15390.5z
		 M4619.4,22066c-633.9,0-1210.7-106.3-1596.5-368.7c-318.9-216.6-490-523.1-508.7-910.6c-55.2-1141.1,855.8-2106,2708-2867.9
		c1543.1-634.9,3435.7-1009.8,4687.9-1257.8c372.8-73.9,694.6-137.8,938.9-194.4c335.8-78.1,697.6-214.1,706.7-312.6
		c25.7-275.4,12.4-482.6-131.3-725.7c-1.1-1.8-2.1-3.8-2.8-5.9l-453.1-1156.6c-190.2-324.6-163.9-726.1,67.5-1024l1169.9-1578.6
		c30.9-39.8,131.5-71.1,189.6-68.8c40.1,1.8,59.1,18.7,68,32.7c54.9,86.5,109,224.9,54.6,394.2c-42.1,130.9-181.6,349.2-309.5,533.2
		l505.8-462.1c23.6-21.8,57.1-28.5,87.6-17.7c30.3,10.9,51.6,37.1,55.5,68.4c19.1,152.6,34.5,436.3-78.2,623
		c-105.5,175-350.3,627.3-474.4,858.2l595.6-440.2c8.5-6.4,19.4-9.2,30.2-7.7c10.6,1.5,22.9,7.3,29.5,15.7
		c76,97.3,192.7,418.3-174.8,733.5c-261.4,224.3,28.6,1112.1,201.9,1642.6c40.1,123,74.8,229.2,97.7,311
		c130.6,464.8-457.2,1375.9-482.2,1414.6c-1,1.1-1.7,2.3-2.7,3.4c-28.5,35-2893.1,3518.2-5723.1,4405.9
		C6192,21918.2,5366.1,22066,4619.4,22066"/>
	<path id="path98" class="st0" d="M17146.8,16585.8c102.4-459,741.1-2039.7,382.7-2315.6c-418.2-322.4-300.7-950.5-227.1-738.3
		c1-0.1,1.5-0.4,2.4-0.5l514.6,340c61.1,40.4,135.7-28.6,97.8-90.4c-147-240.7-357.7-582.7-456.8-728.9
		c-117.4-172.8-115-453.9-105.1-593.1c2.7-35.4,45.1-53,73.1-30.1l843.8,693.4c0,0-492.9-573.7-586.8-819.4
		c-59.2-155-11.9-286.8,30.7-362.9c20.8-36.8,141.3-17.7,168.9,14.4l1276.7,1530.7c236.4,273.2,282.1,658.8,115.8,977.9
		l-541.2,1038.4c-135.3,259.4-181.2,549.4-139.9,829c23.9,161,149.9,289.1,313.4,318.4c1929.2,343.8,9125.3,1144.4,9159.3,3904
		c19,1553.8-2253.3,1380.7-3942.9,945.7c-2895.2-745.4-6246.1-3935.1-6246.1-3935.1S17044.1,17045,17146.8,16585.8"/>
	<path id="path100" d="M17146.8,16585.8h0.4H17146.8z M17276.1,13562c-20.3,120.3,2.8,464,278.8,676.6
		c295.8,227.8-6,1181.1-226.4,1877.1c-63.2,199.6-117.8,371.8-141.5,478.8c-95.4,426.8,707.1,930,715.4,934.9
		c2.2,1.5,4.5,3.3,6.6,5.1c33.5,31.9,3376.4,3190.9,6227.9,3925.1c773.9,199.2,2664.8,593.4,3503.7-48
		c261.7-199.9,392.2-488.7,387.5-858.3c-12.7-1040-1085.9-1921.4-3189.8-2619.4c-1759-583.6-3877.2-917.3-5142.6-1116.5
		c-313.7-49.4-584.6-92.1-793.1-129.3c-180.9-32.3-320.2-173.6-346.7-352.1c-43.5-293.8,6.3-588.8,144.1-852.8l541.2-1038.4
		c159.1-305.5,115.7-672-110.7-933.7l-1277.1-1531.2c-14.4-14.4-83.1-25.6-103.3-17c-41.2,74.4-78.1,190.6-26.4,326.1
		c90.4,236.6,575,801.9,580,807.7c13.6,16,12.7,39.5-2.4,54.2c-15.1,14.8-39.1,15.9-55.3,2.6l-843.8-693.4l-46.8-0.7l40.9,2.9
		c-8.2,115.1-14.9,401.2,98.2,568c98.4,144.9,303.3,477.2,457.9,730.5c27,44.3,19.6,97.8-18.6,133.4c-38.4,35.6-93.8,40-137.3,10.9
		l-509-336.2C17283.3,13566.8,17279.4,13564.6,17276.1,13562L17276.1,13562z M26228,21842.1c-800.3,0-1651.5-186.2-2112.2-304.8
		c-2834.6-729.7-6142.3-3829.9-6261.2-3942.2c-68.6-43.1-853-547.7-747.9-1017.8c24.6-110.1,79.5-284,143.2-485.3
		c189-597.1,505.7-1596.5,254.2-1790.2c-320.2-246.8-342.7-668.4-297.9-794.7c17.2-48.3,46-58.2,64.4-58.2
		c35.9,0.1,54.9,31.7,64.4,54l507.1,335.1c17.3,11.5,31.2,1,35.1-2.7c4.9-4.5,15.1-16.8,4.6-33.8
		c-154.1-252.4-358.4-583.6-455.9-727.2c-122.4-180.6-122.4-464.7-111.6-618c2.2-31.6,21.9-58.7,51.6-71.1
		c29.8-12.2,63.7-7.3,88.4,13.1l530,435.5c-137.5-177.3-288.5-388-337.7-516.7c-63.6-166.2-16.9-307.4,33.4-396.4
		c8.9-15.9,29.1-35.6,74.3-40c53.7-5.3,131.3,12.6,161.7,47.6l1277.1,1531.4c247.5,285.8,295,687,120.7,1021.4l-541.2,1038.4
		c-130.1,249.4-177,527.6-135.8,804.9c21.4,144.1,134,258.5,280.1,284.6c207.5,37.1,478,79.5,791.3,129
		c1268.1,199.8,3390.4,534,5156,1119.8c2140.4,710.3,3232.2,1616.7,3245.7,2694.5c4.9,395.8-136.2,706.4-419.2,922.8
		C27331.9,21749.5,26792.5,21842.1,26228,21842.1"/>
	<path id="path102" class="st0" d="M28860.7,27530.6l-12894.2,27c-112.8,0-191-80.5-182.9-188.1l579.6-7702.2
		c14-187.3,193.2-364.4,389.6-364.4l12719.5,11.1L28860.7,27530.6"/>
	<path id="path104" d="M16752.8,19343.1c-169.5,0-335.9,156-348.8,327.3l-579.4,7702.2c-2.9,39.8,8.9,76.2,34,102.5
		c25.8,27.2,64.3,42.3,108,42.3l12855.9-27l605.7-8136.2L16752.8,19343.1z M28860.7,27530.6h0.4H28860.7z M15966.6,27597.8
		c-66.9,0-126.5-24.1-168.2-68c-40.4-42.7-60.2-100.7-55.5-163.1l579.4-7702.2c16.1-213.9,217.3-401.6,430.5-401.6l12719.5,11.1
		c11.3,0,22.2,4.5,30,12.7c7.8,8.2,11.7,19.2,10.8,30.2l-611.6,8216.5c-1.5,20.9-19.4,37.2-40.8,37.2L15966.6,27597.8"/>
	<path id="path106" class="st0" d="M29126.8,27520.8H16495.8c-112.5,0-190.7-80.6-182.8-188.4l571.3-7632.8
		c16.1-211.9,226.2-399.9,447.7-399.9h12468c112.5,0,190.7,80.6,182.8,188.4l-583.1,7788.8
		C29390.1,27406.3,29261.7,27520.8,29126.8,27520.8"/>
	<path id="path108" d="M17332.1,19339.7c-198.8,0-392.5,172.9-406.7,362.7l-571.6,7632.8c-2.9,40.1,9.1,76.8,34.1,103
		c25.8,27.4,64.3,42.3,107.9,42.3h12630.9c113.5,0,224.1-98.5,232.1-206.7l583.1-7788.8c2.9-40.1-9.1-76.8-34.1-103
		c-25.7-27.4-64.1-42.3-107.7-42.3H17332.1z M29126.8,27560.9H16495.8c-66.6,0-126.3-24.1-167.8-67.9
		c-40.7-42.8-60.5-101.1-55.9-163.6l571.6-7632.8c17.3-233,245.5-437.2,488.5-437.2h12468c66.6,0,126.3,24.1,167.8,67.9
		c40.7,42.8,60.5,101.1,55.8,163.8l-583.1,7788.8C29429.4,27429.5,29282.8,27560.9,29126.8,27560.9"/>
	<path id="path110" d="M21428.1,29401.9h1933.1l482.2-5145.6c5.7-61.7-37.3-108.4-99.6-108.4h-1606.3c-123,0-225.8,95.1-237.4,219.5
		L21428.1,29401.9"/>
	<path id="path112" class="st0" d="M21731.7,29401.9h1932.8l475.6-5147.4h-1932.8L21731.7,29401.9"/>
	<path id="path114" d="M21776.7,29361.8h1850.5l468.2-5067.1h-1850.5L21776.7,29361.8z M23664.7,29442h-1932.8
		c-11.6,0-22.5-4.8-30.3-13c-7.8-8.3-11.6-19.6-10.6-30.8l475.6-5147.4c2.1-20.7,19.7-36.5,40.9-36.5h1932.8
		c11.6,0,22.5,4.8,30.3,13c7.7,8.3,11.6,19.6,10.5,30.8l-475.6,5147.4C23703.5,29426.4,23685.9,29442,23664.7,29442"/>
	<path id="path116" d="M25062.5,29498.2h-5328.5c-28.4,0-51.4-22.6-51.4-50.4v-800.7c0-27.8,23.1-50.2,51.4-50.2h5328.5
		c28.4,0,51.3,22.4,51.3,50.2v800.7C25113.6,29475.6,25090.7,29498.2,25062.5,29498.2"/>
	<path id="path118" class="st0" d="M25386.9,29419h-5431.2v-743.1h5431.2V29419"/>
	<path id="path120" d="M19996.8,29378.9h5349.1v-662.8h-5349.1V29378.9z M25386.9,29459.2h-5431.2c-22.8,0-40.9-17.9-40.9-40.1
		V28676c0-22.3,18.3-40.1,40.9-40.1h5431.2c22.5,0,40.9,17.9,40.9,40.1v743.1C25428,29441.3,25409.5,29459.2,25386.9,29459.2"/>
	<path id="path122" class="st0" d="M30659.5,33317.8H2470.4l-253.7-2622.5h28640.4L30659.5,33317.8"/>
	<path id="path124" class="st0" d="M1956.7,30974.4h29684.4c66.4,0,120-52.5,120-117.3v-1324.9c0-64.7-53.7-117.3-120-117.3H1956.7
		c-66.2,0-119.7,52.5-119.7,117.3v1324.9C1836.9,30921.9,1890.6,30974.4,1956.7,30974.4"/>
	<path id="path126" d="M1956.8,29455.1c-43.5,0-78.8,34.6-78.8,77.2v1324.9c0,42.6,35.3,77.2,78.8,77.2h29684.4
		c43.6,0,78.8-34.6,78.8-77.2v-1324.9c0-42.6-35.2-77.2-78.8-77.2H1956.8z M31641.2,31014.6H1956.8c-88.7,0-160.8-70.7-160.8-157.5
		v-1324.9c0-86.9,72.1-157.5,160.8-157.5h29684.4c88.7,0,161,70.6,161,157.5v1324.9
		C31802.2,30943.8,31729.8,31014.6,31641.2,31014.6"/>
	<path id="path128" d="M11747.3,30572.5c-22.6,0-41.1-18.1-41.1-40.1v-717c0-22.3,18.3-40.4,41.1-40.4c22.6,0,40.9,18.1,40.9,40.4
		v717C11788.2,30554.5,11769.9,30572.5,11747.3,30572.5"/>
	<path id="path130" d="M5347.2,33385.5c-22.4,0-40.7-17.5-40.9-39.5l-29.5-1930.3c-0.4-22.3,17.7-40.5,40.4-40.6
		c23.9,0.1,41.4,17.4,41.6,39.4l29.5,1930.5c0.4,22-17.7,40.4-40.4,40.6C5347.6,33385.5,5347.5,33385.5,5347.2,33385.5"/>
	<path id="path132" d="M2451.4,33359.3c-21.4,0-39.3-16-40.9-37.2l-170.3-2296.3c-1.7-22,15.4-41.2,38-42.8
		c22.1-1.8,42.2,14.9,43.9,37.1l170.3,2296.2c1.7,22-15.4,41.5-38,42.8C2453.4,33359.3,2452.4,33359.3,2451.4,33359.3"/>
	<path id="path134" d="M30679.9,33360c-1.5,0-2.9,0-4.5-0.1c-22.5-2.3-38.7-22-36.5-44.2l254.3-2339.9c2.2-22,21.9-38.2,45.1-35.7
		c22.5,2.3,38.7,22,36.3,44.2l-254.2,2339.9C30718.2,33344.6,30700.6,33360,30679.9,33360"/>
	<path id="path136" d="M7088.5,7365.1c-6.3-1598.3-1334.8-2896.5-2967.2-2899.6c-1632.4-2.9-2950.7,1290.5-2944.4,2888.8
		c6.3,1598.5,1334.8,2896.7,2967.2,2899.6C5776.6,10256.8,7094.8,8963.5,7088.5,7365.1"/>
	<path id="path138" class="st0" d="M3202,5962.7l-346.1,0.7c-60.5,0.1-109.4,48.3-109.3,107.7l6.7,2584.2
		c0.1,59.2,49.3,107.1,109.8,107.1l346.1-1c60.5-0.1,109.4-48.3,109.3-107.7l-6.7-2584.2C3311.7,6010.6,3262.5,5962.5,3202,5962.7"
		/>
	<path id="path140" class="st0" d="M4304.2,6773.2l-346.1,1c-60.5,0.1-109.4,48.3-109.3,107.4l4.6,1770.9
		c0.1,59.2,49.3,107.1,109.8,107.1l346.1-1c60.5-0.1,109.4-48.3,109.3-107.7l-4.6-1770.7C4413.9,6821.1,4364.7,6773.1,4304.2,6773.2
		"/>
	<path id="path142" class="st0" d="M5406.9,7809.3l-346.1,0.7c-60.5,0.1-109.4,48.3-109.3,107.7l2,732.2
		c0.1,59.2,49.3,107.1,109.8,107.1l346.1-1c60.5-0.1,109.4-48.3,109.3-107.7l-2-732.2C5516.6,7857.2,5467.4,7809.1,5406.9,7809.3"/>
	<path id="path144" class="st0" d="M5718.9,7289.3c-6.3,0-12.6-1.5-18.6-4.4c-709.4-352.5-1517.7-985.6-2471.2-1935.3
		c-15.9-15.9-15.6-41.2,0.4-56.9c16.2-15.5,42.2-15.3,58,0.5c947.2,943.5,1748.5,1571.4,2449.9,1919.9c20.3,10,28.2,34.3,18,54
		C5748.2,7281.1,5733.8,7289.3,5718.9,7289.3"/>
	<path id="path146" class="st0" d="M5780.5,7356.6c-0.8,0-1.5-0.1-2.4-0.1l-574.1-33c-22.6-1.2-39.8-20.2-38.6-42.6
		c1.3-22,21-39,43.3-37.8l520.1,30.1l-106.6-477.4c-4.9-21.8,9.2-43.1,31.3-47.8c22.2-4.8,44,8.9,48.9,30.6l118.2,529.1
		c2.8,12.5-0.6,25.2-8.9,34.6C5803.8,7351.4,5792.4,7356.6,5780.5,7356.6"/>
</g>
</svg>
