<svg width="56" height="58" viewBox="0 0 56 58" fill="none" xmlns="http://www.w3.org/2000/svg">
<g filter="url(#filter0_i_1315_6161)">
<path d="M34.3834 8.40272L21.5597 1L8.73608 8.40272M34.3834 8.40272L21.5597 15.8054M34.3834 8.40272V25.2986M8.73608 8.40272L21.5597 15.8054M8.73608 8.40272V42.1945L21.5597 49.5973L34.3834 57M21.5597 15.8054V32.7014M21.5597 32.7014L34.3834 40.1041M21.5597 32.7014L27.9715 29L34.3834 25.2986M34.3834 25.2986L47.207 32.7014M34.3834 40.1041L47.207 32.7014M34.3834 40.1041V57M47.207 32.7014V49.5973L34.3834 57" stroke="#E05151" stroke-linejoin="round"/>
<path d="M21.5597 15.8056L8.73608 8.40283V42.1947L21.5597 49.5974L34.3834 57.0001V40.1042L21.5597 32.7015V15.8056Z" stroke="#E05151" stroke-linejoin="round"/>
<path d="M34.3835 8.40283L21.5598 15.8056V32.7015L27.9716 29.0001L34.3835 25.2987V8.40283Z" stroke="#E05151" stroke-linejoin="round"/>
<path d="M47.2071 32.7015L34.3835 40.1042V57.0001L47.2071 49.5974V32.7015Z" stroke="#E05151" stroke-linejoin="round"/>
<path d="M34.3834 8.40272L21.5597 1L8.73608 8.40272L21.5597 15.8054L34.3834 8.40272Z" stroke="#E05151" stroke-linejoin="round"/>
<path d="M21.5597 32.7014L34.3834 40.1041L47.207 32.7014L34.3834 25.2986L27.9715 29L21.5597 32.7014Z" stroke="#E05151" stroke-linejoin="round"/>
</g>
<defs>
<filter id="filter0_i_1315_6161" x="8.23608" y="0.5" width="39.4709" height="58.0742" filterUnits="userSpaceOnUse" color-interpolation-filters="sRGB">
<feFlood flood-opacity="0" result="BackgroundImageFix"/>
<feBlend mode="normal" in="SourceGraphic" in2="BackgroundImageFix" result="shape"/>
<feColorMatrix in="SourceAlpha" type="matrix" values="0 0 0 0 0 0 0 0 0 0 0 0 0 0 0 0 0 0 127 0" result="hardAlpha"/>
<feOffset dy="1.07423"/>
<feGaussianBlur stdDeviation="6.44538"/>
<feComposite in2="hardAlpha" operator="arithmetic" k2="-1" k3="1"/>
<feColorMatrix type="matrix" values="0 0 0 0 1 0 0 0 0 1 0 0 0 0 1 0 0 0 0.32 0"/>
<feBlend mode="normal" in2="shape" result="effect1_innerShadow_1315_6161"/>
</filter>
</defs>
</svg>
