<svg width="58" height="56" viewBox="0 0 58 56" fill="none" xmlns="http://www.w3.org/2000/svg">
<path d="M14.6493 20.1142C17.1369 12.8282 26.3089 9.36477 35.1355 12.3784C43.9621 15.392 49.1009 23.7415 46.6133 31.0275C45.9914 32.849 44.9518 34.4316 43.6042 35.7338M14.6493 20.1142C12.1617 27.4002 17.3005 35.7497 26.1271 38.7633M14.6493 20.1142C18.7197 16.3926 25.3918 15.1952 31.8738 17.4083C40.7004 20.4219 45.8161 28.7063 43.3285 35.9923M26.1271 38.7633C32.5989 40.9729 39.2564 39.7005 43.3285 35.9923M26.1271 38.7633C32.7471 41.0235 39.5613 39.6404 43.6042 35.7338M5.51667 16.9961C1.60758 28.4455 9.68284 41.5661 23.5533 46.3018C34.4148 50.0102 45.6091 47.4773 51.8318 40.7061C52.4912 39.9885 53.0949 39.2233 53.6363 38.4129M5.51667 16.9961L5.52682 16.9664M5.51667 16.9961C5.52009 16.9861 5.52347 16.9762 5.52682 16.9664M43.3285 35.9923C43.4218 35.9074 43.5137 35.8212 43.6042 35.7338M53.6363 38.4129C54.5103 37.1049 55.2223 35.6791 55.7459 34.1455C59.655 22.6961 51.5798 9.57552 37.7093 4.83984C25.3747 0.6285 12.6108 4.46628 7.18644 13.4196M53.6363 38.4129C53.6363 38.4129 51.6064 41.4581 50.2508 43.0599C42.3141 52.4377 32.6209 55.4841 20.2685 51.2667C6.39803 46.531 -1.67724 33.4104 2.23185 21.961C2.80391 20.2855 3.9809 18.304 5.00856 16.5557C5.93822 14.9741 7.18644 13.4196 7.18644 13.4196M7.18644 13.4196C7.18644 13.4196 6.50419 14.6036 6.14601 15.4004C5.7944 16.1825 5.70619 16.4409 5.52682 16.9664" stroke="#E8BF80" stroke-linejoin="round"/>
<path d="M46.6135 31.0273C49.1011 23.7414 43.9623 15.3919 35.1356 12.3783C26.309 9.36465 17.137 12.8281 14.6494 20.1141C18.7198 16.3925 25.392 15.1951 31.8739 17.4082C40.7005 20.4218 45.8162 28.7062 43.3286 35.9922C43.4219 35.9073 43.5138 35.8211 43.6043 35.7336C44.9519 34.4314 45.9916 32.8488 46.6135 31.0273Z" stroke="#E8BF80" stroke-linejoin="round"/>
<path d="M23.5534 46.3017C9.68295 41.566 1.60769 28.4454 5.51678 16.996L5.52693 16.9663C5.7063 16.4408 5.79451 16.1824 6.14612 15.4003C6.5043 14.6035 7.18655 13.4195 7.18655 13.4195C7.18655 13.4195 5.93833 14.974 5.00867 16.5555C3.98101 18.3038 2.80402 20.2853 2.23196 21.9608C-1.67713 33.4102 6.39814 46.5308 20.2686 51.2665C32.621 55.4839 42.3142 52.4376 50.2509 43.0598C51.6065 41.458 53.6365 38.4128 53.6365 38.4128C53.095 39.2232 52.4914 39.9884 51.8319 40.706C45.6092 47.4772 34.4149 50.0101 23.5534 46.3017Z" stroke="#E8BF80" stroke-linejoin="round"/>
<path fill-rule="evenodd" clip-rule="evenodd" d="M55.7459 34.1455C59.655 22.6961 51.5798 9.57552 37.7093 4.83984C25.3747 0.6285 12.6108 4.46628 7.18644 13.4196C7.18644 13.4196 6.50419 14.6036 6.14601 15.4004C5.7944 16.1825 5.70619 16.4409 5.52682 16.9664L5.51667 16.9961C1.60758 28.4455 9.68284 41.5661 23.5533 46.3018C34.4148 50.0102 45.6091 47.4773 51.8318 40.7061C52.4912 39.9885 53.0949 39.2233 53.6363 38.4129C54.5103 37.1049 55.2223 35.6791 55.7459 34.1455ZM35.1355 12.3784C43.9621 15.392 49.1009 23.7415 46.6133 31.0275C45.9914 32.849 44.9518 34.4316 43.6042 35.7338C43.5137 35.8212 43.4218 35.9074 43.3285 35.9923C39.2564 39.7005 32.5989 40.9729 26.1271 38.7633C17.3005 35.7497 12.1617 27.4002 14.6493 20.1142C17.1369 12.8282 26.3089 9.36477 35.1355 12.3784Z" stroke="#E8BF80" stroke-linejoin="round"/>
</svg>
