<svg width="56" height="58" viewBox="0 0 56 58" fill="none" xmlns="http://www.w3.org/2000/svg">
<path d="M28.0559 57.1121L52.304 43.0841L52.304 33.7321L44.2213 38.4081L36.1386 43.0841L28.056 47.7601L28.0559 57.1121Z" fill="#050A0A"/>
<path d="M3.80795 33.7321L3.80794 43.0841L28.0559 57.1121L28.056 47.7601L11.8906 38.4081L3.80795 33.7321Z" fill="#050A0A"/>
<path d="M11.8906 19.7041L11.8906 29.0561L19.9733 33.7321L28.056 38.4081L28.056 29.0561L11.8906 19.7041Z" fill="#050A0A"/>
<path d="M44.2213 19.7041L28.056 29.0561L28.056 38.4081L44.2213 29.0561L44.2213 19.7041Z" fill="#050A0A"/>
<path d="M19.9733 5.67605L19.9733 15.0281L28.056 19.7041L28.056 10.3521L19.9733 5.67605Z" fill="#050A0A"/>
<path d="M36.1386 5.67605L28.056 10.3521L28.056 19.7041L36.1386 15.0281L36.1386 5.67605Z" fill="#050A0A"/>
<path d="M28.056 29.0561L11.8906 19.7041M28.056 29.0561L44.2213 19.7041M28.056 29.0561L28.056 38.4081M28.056 10.3521L19.9733 5.67605M28.056 10.3521L36.1386 5.67605M28.056 10.3521L28.056 19.7041M11.8906 19.7041L19.9733 15.0281M11.8906 19.7041L11.8906 29.0561M19.9733 5.67605L28.056 1.00005L36.1386 5.67605M19.9733 5.67605L19.9733 15.0281M19.9733 15.0281L28.056 19.7041M11.8906 29.0561L3.80795 33.7321M11.8906 29.0561L19.9733 33.7321L28.056 38.4081M3.80795 33.7321L3.80794 43.0841L28.0559 57.1121M3.80795 33.7321L11.8906 38.4081L28.056 47.7601M28.056 19.7041L36.1386 15.0281M28.0559 57.1121L52.304 43.0841L52.304 33.7321M28.0559 57.1121L28.056 47.7601M52.304 33.7321L44.2213 38.4081L36.1386 43.0841L28.056 47.7601M52.304 33.7321L44.2213 29.0561M36.1386 5.67605L36.1386 15.0281M36.1386 15.0281L44.2213 19.7041M44.2213 19.7041L44.2213 29.0561M28.056 38.4081L44.2213 29.0561" stroke="#51E0CF" stroke-linejoin="round"/>
<path d="M3.8079 33.7321L3.8079 43.0841L28.0559 57.1121L28.0559 47.7601L11.8906 38.4081L3.8079 33.7321Z" fill="#050A0A"/>
<path d="M11.8906 19.7041L11.8906 29.0561L19.9732 33.7321L28.0559 38.4081L28.0559 29.0561L11.8906 19.7041Z" fill="#050A0A"/>
<path d="M19.9732 5.67605L19.9732 15.0281L28.0559 19.7041L28.0559 10.3521L19.9732 5.67605Z" fill="#050A0A"/>
<path d="M3.8079 33.7321L3.8079 43.0841L28.0559 57.1121L28.0559 47.7601L11.8906 38.4081L3.8079 33.7321Z" stroke="#51E0CF" stroke-width="0.448" stroke-linejoin="round"/>
<path d="M11.8906 19.7041L11.8906 29.0561L19.9732 33.7321L28.0559 38.4081L28.0559 29.0561L11.8906 19.7041Z" stroke="#51E0CF" stroke-width="0.448" stroke-linejoin="round"/>
<path d="M19.9732 5.67605L19.9732 15.0281L28.0559 19.7041L28.0559 10.3521L19.9732 5.67605Z" stroke="#51E0CF" stroke-width="0.448" stroke-linejoin="round"/>
<path d="M11.8906 29.056L3.80794 33.732L11.8906 38.408L28.0559 47.76L36.1386 43.084L44.2213 38.408L52.304 33.732L44.2213 29.056L28.056 38.408L19.9733 33.732L11.8906 29.056Z" fill="#050A0A"/>
<path d="M19.9733 15.028L11.8906 19.704L28.056 29.056L44.2213 19.704L36.1386 15.028L28.056 19.704L19.9733 15.028Z" fill="#050A0A"/>
<path d="M28.056 1L19.9733 5.676L28.056 10.352L36.1386 5.676L28.056 1Z" fill="#050A0A"/>
<path d="M11.8906 29.056L3.80794 33.732L11.8906 38.408L28.0559 47.76L36.1386 43.084L44.2213 38.408L52.304 33.732L44.2213 29.056L28.056 38.408L19.9733 33.732L11.8906 29.056Z" stroke="#51E0CF" stroke-width="0.448" stroke-linejoin="round"/>
<path d="M19.9733 15.028L11.8906 19.704L28.056 29.056L44.2213 19.704L36.1386 15.028L28.056 19.704L19.9733 15.028Z" stroke="#51E0CF" stroke-width="0.448" stroke-linejoin="round"/>
<path d="M28.056 1L19.9733 5.676L28.056 10.352L36.1386 5.676L28.056 1Z" stroke="#51E0CF" stroke-width="0.448" stroke-linejoin="round"/>
</svg>
