<svg width="21" height="20" viewBox="0 0 21 20" fill="none" xmlns="http://www.w3.org/2000/svg">
<path d="M9.66675 10C11.9679 10 13.8334 8.13456 13.8334 5.83337C13.8334 8.13456 15.6989 10 18.0001 10C15.6989 10 13.8334 11.8655 13.8334 14.1667C13.8334 11.8655 11.9679 10 9.66675 10Z" fill="#68F2C9"/>
<path d="M9.66675 10C11.9679 10 13.8334 8.13456 13.8334 5.83337C13.8334 8.13456 15.6989 10 18.0001 10C15.6989 10 13.8334 11.8655 13.8334 14.1667C13.8334 11.8655 11.9679 10 9.66675 10Z" fill="url(#paint0_linear_756_8904)" fill-opacity="0.56"/>
<path d="M9.66675 10C11.9679 10 13.8334 8.13456 13.8334 5.83337C13.8334 8.13456 15.6989 10 18.0001 10C15.6989 10 13.8334 11.8655 13.8334 14.1667C13.8334 11.8655 11.9679 10 9.66675 10Z" stroke="#68F2C9" stroke-width="1.25" stroke-linecap="round" stroke-linejoin="round"/>
<path d="M9.66675 10C11.9679 10 13.8334 8.13456 13.8334 5.83337C13.8334 8.13456 15.6989 10 18.0001 10C15.6989 10 13.8334 11.8655 13.8334 14.1667C13.8334 11.8655 11.9679 10 9.66675 10Z" stroke="url(#paint1_linear_756_8904)" stroke-opacity="0.56" stroke-width="1.25" stroke-linecap="round" stroke-linejoin="round"/>
<path d="M7.16675 5.41663C7.8571 5.41663 8.41675 4.85698 8.41675 4.16663C8.41675 4.85698 8.97639 5.41663 9.66675 5.41663C8.97639 5.41663 8.41675 5.97627 8.41675 6.66663C8.41675 5.97627 7.8571 5.41663 7.16675 5.41663Z" stroke="#68F2C9" stroke-width="1.25" stroke-linecap="round" stroke-linejoin="round"/>
<path d="M7.16675 5.41663C7.8571 5.41663 8.41675 4.85698 8.41675 4.16663C8.41675 4.85698 8.97639 5.41663 9.66675 5.41663C8.97639 5.41663 8.41675 5.97627 8.41675 6.66663C8.41675 5.97627 7.8571 5.41663 7.16675 5.41663Z" stroke="url(#paint2_linear_756_8904)" stroke-opacity="0.56" stroke-width="1.25" stroke-linecap="round" stroke-linejoin="round"/>
<path d="M3 9.16671C3.46024 9.166 a71 3.83333 8.79361 3.83333 8.33337C3.83333 8.79361 4.20643 9.16671 4.66667 9.16671C4.20643 9.16671 3.83333 9.5398 3.83333 10C3.83333 9.5398 3.46024 9.16671 3 9.16671Z" stroke="#68F2C9" stroke-width="1.25" stroke-linecap="round" stroke-linejoin="round"/>
<path d="M3 9.16671C3.46024 9.16671 3.83333 8.79361 3.83333 8.33337C3.83333 8.79361 4.20643 9.16671 4.66667 9.16671C4.20643 9.16671 3.83333 9.5398 3.83333 10C3.83333 9.5398 3.46024 9.16671 3 9.16671Z" stroke="url(#paint3_linear_756_8904)" stroke-opacity="0.56" stroke-width="1.25" stroke-linecap="round" stroke-linejoin="round"/>
<path d="M4.66675 14.1666C6.04746 14.1666 7.16675 13.0473 7.16675 11.6666C7.16675 13.0473 8.28604 14.1666 9.66675 14.1666C8.28604 14.1666 7.16675 15.2859 7.16675 16.6666C7.16675 15.2859 6.04746 14.1666 4.66675 14.1666Z" fill="#68F2C9"/>
<path d="M4.66675 14.1666C6.04746 14.1666 7.16675 13.0473 7.16675 11.6666C7.16675 13.0473 8.28604 14.1666 9.66675 14.1666C8.28604 14.1666 7.16675 15.2859 7.16675 16.6666C7.16675 15.2859 6.04746 14.1666 4.66675 14.1666Z" fill="url(#paint4_linear_756_8904)" fill-opacity="0.56"/>
<path d="M4.66675 14.1666C6.04746 14.1666 7.16675 13.0473 7.16675 11.6666C7.16675 13.0473 8.28604 14.1666 9.66675 14.1666C8.28604 14.1666 7.16675 15.2859 7.16675 16.6666C7.16675 15.2859 6.04746 14.1666 4.66675 14.1666Z" stroke="#68F2C9" stroke-width="1.25" stroke-linecap="round" stroke-linejoin="round"/>
<path d="M4.66675 14.1666C6.04746 14.1666 7.16675 13.0473 7.16675 11.6666C7.16675 13.0473 8.28604 14.1666 9.66675 14.1666C8.28604 14.1666 7.16675 15.2859 7.16675 16.6666C7.16675 15.2859 6.04746 14.1666 4.66675 14.1666Z" stroke="url(#paint5_linear_756_8904)" stroke-opacity="0.56" stroke-width="1.25" stroke-linecap="round" stroke-linejoin="round"/>
<defs>
<linearGradient id="paint0_linear_756_8904" x1="13.8334" y1="5.83337" x2="13.8334" y2="12.1924" gradientUnits="userSpaceOnUse">
<stop stop-color="white"/>
<stop offset="1" stop-color="white" stop-opacity="0"/>
</linearGradient>
<linearGradient id="paint1_linear_756_8904" x1="13.8334" y1="5.83337" x2="13.8334" y2="12.1924" gradientUnits="userSpaceOnUse">
<stop stop-color="white"/>
<stop offset="1" stop-color="white" stop-opacity="0"/>
</linearGradient>
<linearGradient id="paint2_linear_756_8904" x1="8.41675" y1="4.16663" x2="8.41675" y2="6.07433" gradientUnits="userSpaceOnUse">
<stop stop-color="white"/>
<stop offset="1" stop-color="white" stop-opacity="0"/>
</linearGradient>
<linearGradient id="paint3_linear_756_8904" x1="3.83333" y1="8.33337" x2="3.83333" y2="9.60518" gradientUnits="userSpaceOnUse">
<stop stop-color="white"/>
<stop offset="1" stop-color="white" stop-opacity="0"/>
</linearGradient>
<linearGradient id="paint4_linear_756_8904" x1="7.16675" y1="11.6666" x2="7.16675" y2="15.482" gradientUnits="userSpaceOnUse">
<stop stop-color="white"/>
<stop offset="1" stop-color="white" stop-opacity="0"/>
</linearGradient>
<linearGradient id="paint5_linear_756_8904" x1="7.16675" y1="11.6666" x2="7.16675" y2="15.482" gradientUnits="userSpaceOnUse">
<stop stop-color="white"/>
<stop offset="1" stop-color="white" stop-opacity="0"/>
</linearGradient>
</defs>
</svg>
