<svg xmlns="http://www.w3.org/2000/svg" xmlns:xlink="http://www.w3.org/1999/xlink" viewBox="0 0 849 675"><g transform="translate(-1 -175)" id="ss2809513483_1"><path d="M 1 850 L 1 175 L 850 175 L 850 850 Z" fill="transparent"></path><g id="ss2809513483_3"><path d="M 0 850 L 0 0 L 850 0 L 850 850 Z" fill="transparent"></path><path d="M 342.125 577.213 C 342.243 577.246 342.366 577.263 342.489 577.263 C 342.763 577.263 343.029 577.174 343.247 577.009 C 343.466 576.844 343.624 576.612 343.7 576.349 L 508.739 10.159 C 508.834 9.838 508.798 9.493 508.639 9.198 C 508.481 8.903 508.212 8.682 507.892 8.585 C 507.733 8.536 507.566 8.52 507.401 8.537 C 507.235 8.553 507.075 8.602 506.929 8.681 C 506.782 8.759 506.653 8.866 506.548 8.995 C 506.443 9.124 506.365 9.272 506.317 9.431 L 341.262 575.638 C 341.215 575.798 341.2 575.966 341.218 576.132 C 341.236 576.297 341.287 576.458 341.367 576.604 C 341.447 576.75 341.556 576.879 341.686 576.984 C 341.816 577.088 341.965 577.166 342.125 577.213 Z" fill="rgb(163,163,163)"></path><path d="M 334.624 586.28 C 334.717 586.288 334.81 586.288 334.903 586.28 C 335.193 586.28 335.473 586.181 335.699 586 C 335.924 585.818 336.079 585.564 336.139 585.281 L 464.901 3.657 C 464.937 3.495 464.941 3.326 464.912 3.162 C 464.883 2.998 464.822 2.841 464.732 2.7 C 464.643 2.559 464.526 2.437 464.389 2.342 C 464.253 2.246 464.099 2.178 463.936 2.142 C 463.773 2.106 463.604 2.102 463.44 2.131 C 463.276 2.16 463.119 2.221 462.978 2.311 C 462.837 2.4 462.716 2.517 462.62 2.653 C 462.524 2.79 462.456 2.944 462.42 3.107 L 333.659 584.731 C 333.619 584.896 333.612 585.067 333.639 585.235 C 333.666 585.403 333.726 585.564 333.816 585.708 C 333.906 585.852 334.024 585.977 334.162 586.075 C 334.301 586.174 334.458 586.243 334.624 586.28 Z" fill="rgb(163,163,163)"></path><path d="M 328.114 596.084 L 328.308 596.084 C 328.611 596.085 328.905 595.977 329.135 595.779 C 329.365 595.582 329.517 595.308 329.561 595.008 L 420.64 1.871 C 420.666 1.704 420.658 1.534 420.618 1.37 C 420.578 1.206 420.506 1.052 420.406 0.916 C 420.306 0.78 420.18 0.665 420.036 0.578 C 419.892 0.49 419.732 0.432 419.565 0.406 C 419.398 0.381 419.228 0.388 419.064 0.428 C 418.9 0.469 418.746 0.541 418.61 0.641 C 418.474 0.74 418.359 0.866 418.271 1.01 C 418.184 1.155 418.126 1.315 418.1 1.482 L 327.055 594.636 C 327.029 594.801 327.035 594.969 327.074 595.131 C 327.113 595.293 327.184 595.446 327.282 595.581 C 327.381 595.715 327.505 595.829 327.648 595.915 C 327.79 596.002 327.949 596.059 328.114 596.084 Z" fill="rgb(163,163,163)"></path><path d="M 322.661 606.522 L 322.771 606.522 C 323.089 606.522 323.396 606.402 323.631 606.188 C 323.865 605.973 324.012 605.679 324.041 605.362 L 376.43 4.707 C 376.444 4.54 376.426 4.372 376.375 4.213 C 376.325 4.053 376.243 3.905 376.136 3.777 C 376.028 3.649 375.896 3.543 375.747 3.466 C 375.599 3.389 375.437 3.342 375.27 3.327 C 375.103 3.313 374.935 3.331 374.776 3.382 C 374.616 3.432 374.468 3.514 374.34 3.621 C 374.212 3.729 374.106 3.861 374.029 4.009 C 373.952 4.158 373.904 4.32 373.89 4.487 L 321.51 605.142 C 321.494 605.309 321.511 605.477 321.56 605.637 C 321.609 605.796 321.69 605.945 321.797 606.073 C 321.904 606.202 322.036 606.308 322.184 606.385 C 322.332 606.462 322.495 606.509 322.661 606.522 Z" fill="rgb(163,163,163)"></path><path d="M 318.327 617.469 C 318.658 617.469 318.976 617.34 319.213 617.109 C 319.45 616.878 319.588 616.564 319.597 616.233 L 332.728 12.14 C 332.733 11.974 332.706 11.808 332.646 11.652 C 332.587 11.496 332.497 11.354 332.382 11.233 C 332.267 11.112 332.129 11.016 331.976 10.949 C 331.823 10.883 331.658 10.847 331.491 10.845 C 331.16 10.845 330.842 10.974 330.605 11.205 C 330.368 11.436 330.23 11.75 330.222 12.081 L 317.091 616.174 C 317.086 616.34 317.115 616.506 317.174 616.661 C 317.234 616.816 317.324 616.958 317.439 617.079 C 317.554 617.199 317.691 617.296 317.844 617.363 C 317.996 617.43 318.16 617.466 318.327 617.469 Z" fill="rgb(163,163,163)"></path><path d="M 315.11 628.822 L 315.16 628.822 C 315.327 628.816 315.491 628.776 315.643 628.706 C 315.794 628.636 315.93 628.537 316.044 628.415 C 316.157 628.292 316.245 628.148 316.302 627.992 C 316.36 627.835 316.386 627.668 316.379 627.502 L 290.134 24.103 C 290.129 23.936 290.09 23.772 290.021 23.619 C 289.951 23.467 289.852 23.331 289.729 23.217 C 289.606 23.104 289.462 23.016 289.305 22.959 C 289.148 22.901 288.981 22.876 288.814 22.884 C 288.476 22.899 288.158 23.048 287.93 23.297 C 287.701 23.546 287.581 23.875 287.595 24.213 L 313.84 627.612 C 313.857 627.937 313.998 628.244 314.234 628.469 C 314.47 628.694 314.783 628.821 315.11 628.822 Z" fill="rgb(163,163,163)"></path><path d="M 311.808 639.312 C 311.841 639.623 311.988 639.911 312.221 640.121 C 312.454 640.33 312.756 640.446 313.069 640.446 L 313.247 640.446 C 313.582 640.408 313.889 640.239 314.099 639.975 C 314.31 639.712 314.409 639.376 314.373 639.041 L 248.997 40.485 C 248.96 40.148 248.791 39.84 248.527 39.628 C 248.262 39.416 247.925 39.318 247.588 39.355 C 247.251 39.392 246.943 39.561 246.731 39.826 C 246.519 40.09 246.421 40.428 246.458 40.764 Z" fill="rgb(163,163,163)"></path><path d="M 527.66 699.303 C 527.504 699.245 527.337 699.219 527.17 699.226 C 527.003 699.233 526.84 699.273 526.688 699.344 C 526.537 699.415 526.402 699.515 526.289 699.639 C 526.177 699.763 526.091 699.907 526.035 700.065 L 522.471 709.919 L 522.394 709.86 C 522.113 709.676 521.771 709.61 521.441 709.676 C 521.111 709.743 520.821 709.937 520.634 710.216 L 514.343 719.715 L 514.208 719.799 L 501.415 732.312 L 486.481 742.311 L 470.616 749.583 L 454.632 754.324 L 439.155 756.864 L 424.56 757.575 L 411.09 756.83 L 398.857 754.951 L 387.851 752.208 L 378.013 748.821 L 369.293 744.995 L 361.58 740.855 L 354.807 736.511 L 348.881 732.016 L 343.649 727.444 L 339.103 722.873 L 335.14 718.267 L 331.703 713.67 L 327.733 707.515 C 327.723 707.328 327.671 707.146 327.58 706.982 L 322.331 697.61 C 322.423 697.43 322.471 697.231 322.471 697.03 C 322.471 696.828 322.423 696.629 322.331 696.45 L 317.87 686.934 C 318.101 686.772 318.272 686.537 318.353 686.267 C 318.435 685.996 318.422 685.706 318.318 685.444 L 314.517 675.682 L 314.661 675.682 C 314.984 675.581 315.255 675.356 315.413 675.056 C 315.572 674.757 315.606 674.407 315.508 674.082 L 312.324 663.999 C 312.429 664.03 312.537 664.047 312.646 664.05 C 312.744 664.062 312.844 664.062 312.942 664.05 C 313.105 664.01 313.258 663.939 313.393 663.84 C 313.528 663.741 313.642 663.616 313.728 663.473 C 313.815 663.33 313.872 663.171 313.897 663.006 C 313.922 662.84 313.914 662.671 313.874 662.509 L 311.258 651.816 C 311.374 651.962 311.52 652.079 311.687 652.161 C 311.854 652.243 312.037 652.287 312.223 652.29 C 312.296 652.299 312.37 652.299 312.443 652.29 C 312.774 652.232 313.068 652.046 313.262 651.771 C 313.455 651.497 313.532 651.157 313.476 650.826 L 209.732 60.999 C 209.674 60.662 209.486 60.361 209.207 60.164 C 208.928 59.966 208.583 59.887 208.246 59.944 C 207.909 60.002 207.609 60.19 207.411 60.469 C 207.213 60.748 207.135 61.094 207.192 61.43 L 310.623 649.031 L 172.879 85.508 C 172.839 85.346 172.768 85.193 172.669 85.058 C 172.571 84.923 172.447 84.809 172.304 84.722 C 172.161 84.635 172.003 84.577 171.838 84.552 C 171.673 84.526 171.504 84.533 171.342 84.572 C 171.18 84.612 171.027 84.683 170.892 84.782 C 170.757 84.88 170.643 85.004 170.556 85.147 C 170.469 85.29 170.411 85.448 170.385 85.613 C 170.36 85.778 170.367 85.947 170.406 86.109 L 309.293 654.246 L 138.785 113.768 C 138.74 113.604 138.662 113.45 138.556 113.317 C 138.449 113.184 138.318 113.073 138.168 112.992 C 138.018 112.91 137.854 112.86 137.684 112.844 C 137.514 112.827 137.343 112.845 137.181 112.896 C 137.018 112.947 136.867 113.031 136.738 113.141 C 136.608 113.252 136.502 113.388 136.426 113.54 C 136.35 113.692 136.305 113.859 136.294 114.029 C 136.284 114.199 136.307 114.369 136.364 114.53 L 308.354 659.749 L 107.85 145.465 C 107.728 145.151 107.486 144.898 107.177 144.762 C 106.868 144.626 106.518 144.619 106.203 144.741 C 105.889 144.864 105.636 145.106 105.501 145.415 C 105.365 145.724 105.357 146.074 105.48 146.388 L 307.82 665.455 L 80.428 180.193 C 80.286 179.888 80.028 179.652 79.711 179.537 C 79.394 179.421 79.045 179.437 78.739 179.579 C 78.434 179.722 78.198 179.98 78.083 180.297 C 77.968 180.614 77.983 180.963 78.126 181.268 L 307.829 671.365 L 56.723 217.58 C 56.649 217.423 56.543 217.284 56.412 217.17 C 56.282 217.056 56.13 216.97 55.965 216.917 C 55.8 216.864 55.626 216.845 55.453 216.862 C 55.281 216.879 55.114 216.931 54.962 217.015 C 54.81 217.099 54.678 217.213 54.572 217.35 C 54.466 217.487 54.389 217.645 54.346 217.812 C 54.303 217.98 54.295 218.155 54.323 218.326 C 54.35 218.497 54.412 218.661 54.505 218.807 L 308.345 677.52 L 37.073 257.269 C 36.89 256.986 36.602 256.787 36.273 256.717 C 35.944 256.646 35.599 256.709 35.316 256.892 C 35.034 257.075 34.835 257.363 34.764 257.692 C 34.694 258.022 34.757 258.366 34.94 258.649 L 309.412 683.903 L 21.69 298.77 C 21.488 298.501 21.187 298.322 20.854 298.275 C 20.52 298.227 20.182 298.314 19.912 298.516 C 19.643 298.718 19.465 299.019 19.417 299.352 C 19.37 299.686 19.456 300.024 19.658 300.294 L 311.147 690.473 L 10.735 341.668 C 10.511 341.413 10.194 341.258 9.855 341.236 C 9.516 341.215 9.182 341.329 8.928 341.554 C 8.673 341.778 8.518 342.095 8.496 342.434 C 8.475 342.773 8.589 343.106 8.813 343.361 L 313.594 697.246 L 4.326 385.446 C 4.087 385.221 3.769 385.097 3.44 385.101 C 3.111 385.105 2.796 385.237 2.562 385.469 C 2.328 385.7 2.194 386.014 2.186 386.343 C 2.179 386.672 2.3 386.991 2.523 387.233 L 316.862 704.103 L 2.54 429.665 C 2.415 429.554 2.269 429.468 2.111 429.414 C 1.952 429.359 1.785 429.337 1.618 429.348 C 1.451 429.359 1.287 429.403 1.138 429.478 C 0.988 429.553 0.854 429.657 0.745 429.783 C 0.524 430.038 0.413 430.369 0.435 430.705 C 0.457 431.041 0.611 431.355 0.864 431.578 L 321.036 711.155 L 5.359 473.816 C 5.09 473.614 4.751 473.527 4.418 473.575 C 4.084 473.622 3.783 473.8 3.581 474.07 C 3.379 474.339 3.292 474.678 3.34 475.011 C 3.388 475.345 3.566 475.646 3.835 475.848 L 326.209 718.182 L 12.792 517.433 C 12.509 517.264 12.17 517.211 11.848 517.288 C 11.526 517.364 11.247 517.563 11.069 517.842 C 10.892 518.121 10.83 518.458 10.897 518.781 C 10.965 519.105 11.155 519.39 11.429 519.575 L 332.499 725.235 L 24.747 560.035 C 24.452 559.891 24.113 559.867 23.8 559.967 C 23.488 560.068 23.227 560.286 23.071 560.575 C 22.916 560.864 22.878 561.202 22.966 561.518 C 23.055 561.834 23.262 562.103 23.544 562.27 L 340.025 732.16 L 41.086 601.146 C 40.932 601.068 40.764 601.022 40.592 601.01 C 40.419 600.999 40.246 601.023 40.084 601.081 C 39.921 601.139 39.772 601.229 39.645 601.347 C 39.518 601.464 39.417 601.607 39.347 601.765 C 39.277 601.923 39.241 602.093 39.239 602.266 C 39.237 602.439 39.271 602.61 39.338 602.769 C 39.405 602.929 39.504 603.073 39.628 603.192 C 39.752 603.312 39.9 603.405 40.062 603.466 L 348.923 738.831 L 61.625 640.319 C 61.467 640.264 61.3 640.24 61.133 640.249 C 60.966 640.258 60.802 640.3 60.651 640.372 C 60.5 640.444 60.365 640.546 60.253 640.67 C 60.141 640.795 60.055 640.94 60 641.098 C 59.944 641.256 59.92 641.423 59.929 641.59 C 59.938 641.758 59.98 641.921 60.052 642.072 C 60.125 642.223 60.226 642.358 60.351 642.47 C 60.475 642.582 60.621 642.668 60.778 642.724 L 359.294 745.079 L 86.118 677.13 C 85.956 677.09 85.789 677.081 85.624 677.106 C 85.46 677.13 85.302 677.187 85.159 677.273 C 85.017 677.359 84.893 677.472 84.794 677.606 C 84.696 677.739 84.625 677.891 84.585 678.053 C 84.506 678.379 84.558 678.724 84.73 679.013 C 84.903 679.301 85.183 679.51 85.508 679.594 L 364.34 748.948 L 365.255 749.753 L 114.369 711.155 C 114.202 711.13 114.032 711.139 113.869 711.179 C 113.705 711.22 113.551 711.293 113.415 711.393 C 113.28 711.493 113.165 711.619 113.078 711.763 C 112.991 711.908 112.934 712.068 112.909 712.235 C 112.884 712.402 112.892 712.572 112.932 712.735 C 112.973 712.899 113.046 713.053 113.146 713.189 C 113.246 713.324 113.372 713.439 113.517 713.526 C 113.661 713.613 113.821 713.67 113.988 713.695 L 373.238 753.562 L 374.889 754.798 L 145.999 742.099 C 145.831 742.088 145.663 742.11 145.505 742.165 C 145.346 742.219 145.2 742.305 145.075 742.417 C 144.951 742.529 144.85 742.665 144.779 742.817 C 144.707 742.969 144.667 743.134 144.661 743.301 C 144.642 743.637 144.758 743.966 144.981 744.217 C 145.205 744.468 145.519 744.619 145.855 744.639 L 383.338 757.829 L 385.878 759.472 L 180.667 769.496 C 180.331 769.503 180.011 769.645 179.778 769.889 C 179.545 770.132 179.419 770.458 179.427 770.795 C 179.435 771.132 179.576 771.452 179.82 771.684 C 180.064 771.917 180.39 772.043 180.727 772.035 L 180.794 772.035 L 394.776 761.546 L 398.442 763.51 L 218.003 793.141 C 217.666 793.168 217.354 793.328 217.135 793.585 C 216.916 793.842 216.808 794.176 216.835 794.513 C 216.862 794.85 217.021 795.162 217.279 795.381 C 217.536 795.6 217.869 795.708 218.206 795.681 L 218.418 795.681 L 407.67 764.602 L 410.811 765.974 C 410.97 766.046 411.144 766.084 411.319 766.084 C 411.578 766.086 411.832 766.009 412.047 765.863 C 412.261 765.716 412.425 765.508 412.517 765.265 C 412.61 765.023 412.625 764.758 412.562 764.506 C 412.499 764.254 412.361 764.028 412.165 763.857 L 413.427 763.654 L 417.948 765.203 L 257.599 812.749 C 257.306 812.835 257.053 813.023 256.887 813.28 C 256.722 813.537 256.654 813.845 256.698 814.148 C 256.741 814.45 256.892 814.727 257.123 814.928 C 257.354 815.128 257.649 815.238 257.955 815.238 C 258.078 815.238 258.2 815.221 258.319 815.187 L 422.079 766.575 L 422.68 766.778 C 422.814 766.824 422.954 766.847 423.095 766.846 C 423.359 766.847 423.616 766.766 423.831 766.614 C 424.047 766.462 424.21 766.247 424.297 765.999 C 424.297 765.999 424.297 765.94 424.297 765.914 L 428.09 764.788 L 434.016 766.27 L 298.965 828.149 C 298.698 828.268 298.481 828.474 298.349 828.734 C 298.217 828.995 298.179 829.292 298.241 829.577 C 298.302 829.862 298.46 830.117 298.687 830.3 C 298.915 830.482 299.198 830.581 299.49 830.579 C 299.674 830.576 299.855 830.536 300.023 830.46 L 444.125 764.424 L 446.343 764.763 C 446.408 764.771 446.473 764.771 446.538 764.763 C 446.841 764.764 447.135 764.656 447.365 764.459 C 447.595 764.261 447.746 763.988 447.791 763.688 C 447.831 763.392 447.765 763.092 447.605 762.841 L 450.5 761.512 L 457.129 761.885 L 341.736 839.155 C 341.511 839.308 341.342 839.528 341.252 839.784 C 341.162 840.04 341.157 840.318 341.236 840.577 C 341.316 840.836 341.476 841.063 341.694 841.225 C 341.912 841.386 342.176 841.474 342.447 841.475 C 342.697 841.474 342.941 841.4 343.149 841.263 L 467.551 757.956 L 469.142 757.88 C 469.478 757.862 469.793 757.713 470.018 757.464 C 470.243 757.215 470.361 756.886 470.345 756.551 C 470.337 756.414 470.305 756.279 470.252 756.153 L 473.977 753.613 L 479.903 752.648 C 480.068 752.621 480.227 752.562 480.369 752.474 C 480.511 752.386 480.635 752.27 480.733 752.134 C 480.83 751.998 480.9 751.844 480.938 751.681 C 480.975 751.518 480.981 751.349 480.953 751.183 C 480.927 751.019 480.869 750.861 480.781 750.719 C 480.694 750.577 480.579 750.454 480.443 750.357 C 480.308 750.26 480.154 750.191 479.992 750.154 C 479.829 750.117 479.661 750.113 479.497 750.142 L 479.082 750.21 L 480.682 749.135 L 485.567 747.687 L 385.455 845.665 C 385.277 845.839 385.155 846.062 385.103 846.305 C 385.05 846.548 385.07 846.801 385.16 847.032 C 385.251 847.264 385.407 847.464 385.61 847.608 C 385.812 847.752 386.053 847.833 386.301 847.841 C 386.618 847.832 386.92 847.705 387.148 847.486 L 496.725 740.338 L 499.485 739.068 C 499.638 738.999 499.776 738.9 499.89 738.777 C 500.004 738.654 500.093 738.51 500.152 738.352 C 500.21 738.195 500.236 738.028 500.229 737.86 C 500.223 737.692 500.183 737.527 500.112 737.375 C 500.072 737.291 500.024 737.212 499.968 737.138 L 502.948 734.234 L 505.928 732.236 L 429.479 847.587 C 429.295 847.87 429.231 848.213 429.299 848.543 C 429.367 848.872 429.562 849.162 429.843 849.348 C 430.048 849.487 430.29 849.56 430.537 849.56 C 430.747 849.561 430.953 849.509 431.138 849.41 C 431.323 849.311 431.48 849.168 431.595 848.993 L 520.777 714.542 L 473.638 844.92 C 473.524 845.237 473.54 845.586 473.682 845.891 C 473.825 846.196 474.083 846.431 474.4 846.546 C 474.538 846.596 474.684 846.622 474.832 846.622 C 475.094 846.623 475.35 846.541 475.564 846.39 C 475.778 846.238 475.939 846.023 476.025 845.775 L 528.422 700.827 C 528.507 700.524 528.476 700.2 528.335 699.918 C 528.194 699.637 527.954 699.417 527.66 699.303 Z M 428.505 762.037 L 428.048 762.172 L 425.914 761.639 Z M 450.356 758.82 L 450.06 758.955 L 448.875 758.896 Z M 368.074 750.176 C 368.125 750.091 368.165 750 368.192 749.905 L 368.497 749.981 L 368.946 750.311 Z M 378.665 754.993 C 378.67 754.923 378.67 754.852 378.665 754.781 L 379.02 755.01 Z M 389.595 759.226 C 389.536 758.942 389.384 758.686 389.163 758.498 L 390.433 759.184 Z M 400.914 763.078 C 400.996 762.797 400.98 762.495 400.867 762.224 C 400.755 761.953 400.553 761.729 400.296 761.588 L 399.695 761.266 L 400.16 761.266 L 403.394 762.68 Z M 408 761.91 L 406.163 761.063 L 408.347 761.808 Z M 422.139 763.9 L 418.752 762.723 L 419.455 762.613 L 423.298 763.569 Z M 436.15 765.296 C 436.184 764.991 436.107 764.683 435.933 764.43 C 435.759 764.176 435.499 763.994 435.202 763.916 L 432.907 763.349 L 434.381 762.909 L 439.604 763.713 Z M 443.769 761.791 L 440.053 761.216 L 440.899 760.962 L 445.056 761.19 Z M 459.254 760.445 C 459.208 760.158 459.066 759.895 458.85 759.699 C 458.635 759.504 458.359 759.388 458.069 759.37 L 455.461 759.226 L 457.154 758.456 L 462.632 758.185 Z M 466.73 755.442 L 463.343 755.603 L 464.088 755.264 L 467.906 754.638 Z M 489.436 743.919 L 489.334 743.919 L 487.895 744.351 L 489.927 743.42 Z" fill="rgb(163,163,163)"></path><path d="M 531.758 688.238 C 531.422 688.212 531.089 688.319 530.831 688.535 C 530.573 688.752 530.41 689.062 530.378 689.397 L 517.281 837.775 C 517.253 838.11 517.358 838.443 517.573 838.701 C 517.789 838.96 518.097 839.123 518.432 839.155 L 518.551 839.155 C 518.867 839.156 519.172 839.038 519.406 838.825 C 519.64 838.612 519.785 838.319 519.812 838.003 L 532.952 689.618 C 532.966 689.448 532.946 689.278 532.893 689.116 C 532.84 688.955 532.756 688.805 532.644 688.677 C 532.533 688.549 532.398 688.443 532.245 688.368 C 532.093 688.293 531.928 688.248 531.758 688.238 Z" fill="rgb(163,163,163)"></path><path d="M 536.143 677.934 C 536.084 677.598 535.893 677.298 535.613 677.102 C 535.333 676.906 534.986 676.829 534.649 676.889 C 534.312 676.948 534.013 677.139 533.817 677.419 C 533.621 677.7 533.544 678.046 533.604 678.383 L 559.849 826.075 C 559.901 826.369 560.055 826.636 560.284 826.828 C 560.513 827.02 560.803 827.125 561.102 827.125 L 561.322 827.125 C 561.486 827.096 561.643 827.035 561.784 826.945 C 561.925 826.856 562.046 826.739 562.142 826.602 C 562.237 826.465 562.304 826.31 562.339 826.147 C 562.374 825.984 562.377 825.816 562.346 825.651 Z" fill="rgb(163,163,163)"></path><path d="M 538.091 666.006 C 538.021 665.854 537.923 665.717 537.8 665.604 C 537.678 665.49 537.535 665.402 537.378 665.343 C 537.222 665.285 537.055 665.258 536.888 665.265 C 536.722 665.271 536.558 665.31 536.406 665.379 C 536.254 665.449 536.118 665.547 536.004 665.67 C 535.89 665.792 535.802 665.935 535.744 666.092 C 535.686 666.248 535.659 666.415 535.665 666.581 C 535.671 666.748 535.71 666.912 535.779 667.064 L 601.155 809.955 C 601.256 810.176 601.418 810.362 601.622 810.493 C 601.826 810.624 602.064 810.693 602.306 810.692 C 602.519 810.693 602.729 810.641 602.916 810.539 C 603.103 810.438 603.261 810.291 603.376 810.112 C 603.491 809.932 603.559 809.727 603.573 809.515 C 603.587 809.302 603.548 809.09 603.458 808.897 Z" fill="rgb(163,163,163)"></path><path d="M 538.751 653.983 C 538.654 653.84 538.528 653.718 538.382 653.625 C 538.236 653.532 538.072 653.47 537.901 653.442 C 537.729 653.415 537.554 653.423 537.386 653.466 C 537.218 653.508 537.061 653.585 536.924 653.691 C 536.786 653.797 536.672 653.93 536.589 654.082 C 536.505 654.233 536.453 654.401 536.436 654.573 C 536.419 654.746 536.438 654.92 536.491 655.085 C 536.544 655.25 536.63 655.402 536.744 655.533 L 640.514 789.56 C 640.727 789.803 641.024 789.956 641.346 789.988 C 641.668 790.019 641.99 789.926 642.245 789.729 C 642.501 789.531 642.672 789.243 642.723 788.924 C 642.774 788.605 642.702 788.278 642.52 788.011 Z" fill="rgb(163,163,163)"></path><path d="M 538.158 641.996 C 537.902 641.777 537.57 641.668 537.234 641.695 C 536.898 641.721 536.587 641.879 536.368 642.135 C 536.149 642.391 536.041 642.724 536.067 643.059 C 536.093 643.395 536.251 643.707 536.507 643.926 L 677.528 765.127 C 677.784 765.346 678.117 765.454 678.453 765.429 C 678.789 765.403 679.102 765.246 679.323 764.992 C 679.432 764.865 679.515 764.718 679.568 764.559 C 679.62 764.4 679.64 764.233 679.628 764.066 C 679.615 763.899 679.57 763.737 679.494 763.587 C 679.419 763.438 679.314 763.305 679.187 763.197 Z" fill="rgb(163,163,163)"></path><path d="M 713.069 734.725 L 536.33 630.177 C 536.186 630.092 536.026 630.036 535.861 630.012 C 535.695 629.989 535.527 629.998 535.365 630.04 C 535.203 630.082 535.051 630.155 534.917 630.255 C 534.783 630.356 534.671 630.481 534.586 630.625 C 534.501 630.769 534.445 630.929 534.421 631.094 C 534.398 631.26 534.407 631.428 534.449 631.59 C 534.491 631.752 534.564 631.904 534.664 632.038 C 534.765 632.172 534.89 632.284 535.034 632.369 L 711.773 736.909 C 711.971 737.025 712.196 737.086 712.425 737.087 C 712.703 737.086 712.973 736.994 713.194 736.825 C 713.414 736.656 713.573 736.419 713.646 736.151 C 713.719 735.883 713.702 735.598 713.598 735.341 C 713.494 735.083 713.308 734.867 713.069 734.725 Z" fill="rgb(163,163,163)"></path><path d="M 743.809 702.892 L 533.29 618.646 C 533.133 618.571 532.963 618.529 532.789 618.522 C 532.615 618.516 532.442 618.545 532.28 618.609 C 532.118 618.672 531.971 618.768 531.848 618.89 C 531.724 619.013 531.627 619.159 531.563 619.32 C 531.498 619.482 531.468 619.655 531.473 619.829 C 531.478 620.002 531.519 620.173 531.593 620.331 C 531.666 620.488 531.772 620.629 531.902 620.744 C 532.033 620.859 532.185 620.946 532.351 620.999 L 742.861 705.229 C 743.013 705.285 743.173 705.314 743.335 705.314 C 743.589 705.316 743.837 705.241 744.047 705.099 C 744.257 704.957 744.419 704.754 744.512 704.518 C 744.63 704.209 744.622 703.866 744.491 703.562 C 744.359 703.259 744.115 703.018 743.809 702.892 Z" fill="rgb(163,163,163)"></path><path d="M 771.07 668.037 L 529.083 607.504 C 528.921 607.463 528.752 607.453 528.587 607.477 C 528.422 607.501 528.263 607.558 528.119 607.644 C 527.976 607.729 527.851 607.843 527.752 607.977 C 527.653 608.112 527.581 608.265 527.542 608.427 C 527.462 608.754 527.514 609.099 527.687 609.387 C 527.86 609.675 528.139 609.884 528.465 609.968 L 770.418 670.518 C 770.522 670.53 770.627 670.53 770.732 670.518 C 771.068 670.558 771.407 670.463 771.674 670.254 C 771.941 670.044 772.113 669.737 772.154 669.4 C 772.194 669.064 772.099 668.724 771.89 668.458 C 771.68 668.191 771.373 668.018 771.036 667.978 Z" fill="rgb(163,163,163)"></path><path d="M 794.555 630.532 L 523.749 596.863 C 523.582 596.843 523.413 596.856 523.251 596.901 C 523.09 596.946 522.939 597.023 522.806 597.127 C 522.54 597.336 522.367 597.643 522.327 597.98 C 522.286 598.317 522.381 598.656 522.591 598.923 C 522.8 599.19 523.107 599.362 523.444 599.402 L 794.251 633.064 L 794.403 633.064 C 794.74 633.084 795.071 632.97 795.323 632.746 C 795.576 632.522 795.729 632.207 795.749 631.87 C 795.769 631.533 795.655 631.202 795.431 630.95 C 795.207 630.697 794.892 630.544 794.555 630.524 Z" fill="rgb(163,163,163)"></path><path d="M 814.01 590.775 L 517.349 586.856 C 517.012 586.856 516.689 586.989 516.451 587.228 C 516.212 587.466 516.079 587.789 516.079 588.126 C 516.079 588.462 516.212 588.785 516.451 589.023 C 516.689 589.262 517.012 589.395 517.349 589.395 L 814.01 593.315 C 814.347 593.315 814.67 593.181 814.908 592.943 C 815.146 592.705 815.28 592.382 815.28 592.045 C 815.28 591.709 815.146 591.386 814.908 591.147 C 814.67 590.909 814.347 590.775 814.01 590.775 Z" fill="rgb(163,163,163)"></path><path d="M 829.216 549.198 L 509.949 577.56 C 509.612 577.574 509.295 577.722 509.067 577.971 C 508.84 578.219 508.72 578.548 508.734 578.885 C 508.749 579.222 508.897 579.539 509.145 579.767 C 509.394 579.994 509.722 580.114 510.059 580.1 L 510.178 580.1 L 829.436 551.738 C 829.602 551.724 829.765 551.677 829.913 551.6 C 830.061 551.523 830.193 551.417 830.3 551.289 C 830.407 551.161 830.488 551.012 830.537 550.852 C 830.586 550.693 830.603 550.525 830.587 550.358 C 830.557 550.023 830.396 549.714 830.139 549.497 C 829.883 549.28 829.551 549.172 829.216 549.198 Z" fill="rgb(163,163,163)"></path><path d="M 839.993 506.275 L 501.627 569.094 C 501.29 569.124 500.979 569.287 500.763 569.546 C 500.546 569.806 500.441 570.141 500.471 570.478 C 500.502 570.815 500.665 571.126 500.924 571.342 C 501.184 571.559 501.519 571.664 501.856 571.633 L 502.093 571.633 L 840.459 508.806 C 840.796 508.745 841.094 508.551 841.289 508.27 C 841.483 507.988 841.558 507.64 841.496 507.304 C 841.434 506.967 841.241 506.668 840.959 506.474 C 840.677 506.279 840.33 506.205 839.993 506.266 Z" fill="rgb(163,163,163)"></path><path d="M 846.233 462.437 L 492.475 561.491 C 492.308 561.513 492.148 561.568 492.002 561.653 C 491.856 561.737 491.729 561.849 491.627 561.983 C 491.525 562.116 491.45 562.269 491.406 562.431 C 491.363 562.594 491.352 562.764 491.375 562.93 C 491.397 563.097 491.452 563.258 491.536 563.403 C 491.62 563.549 491.733 563.676 491.866 563.779 C 492 563.881 492.152 563.956 492.315 563.999 C 492.477 564.042 492.647 564.053 492.814 564.031 C 492.928 564.031 493.043 564.013 493.152 563.98 L 846.918 464.926 C 847.079 464.881 847.229 464.805 847.36 464.702 C 847.492 464.599 847.601 464.471 847.683 464.326 C 847.765 464.18 847.817 464.02 847.837 463.854 C 847.857 463.689 847.844 463.521 847.799 463.36 C 847.754 463.199 847.678 463.049 847.574 462.918 C 847.471 462.787 847.344 462.677 847.198 462.595 C 847.053 462.514 846.892 462.461 846.727 462.442 C 846.561 462.422 846.393 462.435 846.233 462.48 Z" fill="rgb(163,163,163)"></path><path d="M 849.492 418.938 C 849.374 418.623 849.136 418.367 848.829 418.227 C 848.523 418.088 848.173 418.075 847.858 418.193 L 482.57 554.972 C 482.293 555.078 482.063 555.278 481.918 555.536 C 481.773 555.794 481.723 556.095 481.776 556.386 C 481.83 556.677 481.983 556.94 482.21 557.13 C 482.436 557.321 482.722 557.426 483.018 557.427 C 483.168 557.427 483.317 557.401 483.459 557.351 L 848.747 420.572 C 848.904 420.515 849.048 420.427 849.17 420.313 C 849.293 420.2 849.392 420.063 849.461 419.911 C 849.53 419.759 849.569 419.595 849.574 419.428 C 849.579 419.261 849.552 419.094 849.492 418.938 Z" fill="rgb(163,163,163)"></path><path d="M 471.454 551.145 C 471.553 551.365 471.714 551.552 471.917 551.682 C 472.119 551.813 472.355 551.882 472.597 551.882 C 472.785 551.882 472.97 551.839 473.138 551.755 L 845.945 376.294 C 846.234 376.142 846.453 375.883 846.557 375.573 C 846.66 375.263 846.64 374.924 846.5 374.629 C 846.361 374.333 846.112 374.102 845.807 373.985 C 845.502 373.868 845.163 373.873 844.861 374 L 472.055 549.452 C 471.903 549.523 471.767 549.623 471.655 549.747 C 471.543 549.871 471.456 550.015 471.4 550.173 C 471.344 550.331 471.32 550.498 471.329 550.665 C 471.338 550.832 471.381 550.995 471.454 551.145 Z" fill="rgb(163,163,163)"></path><path d="M 460.558 546.836 C 460.668 547.032 460.827 547.194 461.021 547.307 C 461.214 547.42 461.434 547.48 461.658 547.48 C 461.881 547.482 462.101 547.423 462.293 547.31 L 838.528 332.601 C 838.673 332.518 838.801 332.407 838.903 332.275 C 839.006 332.143 839.081 331.992 839.125 331.831 C 839.169 331.67 839.181 331.502 839.16 331.336 C 839.139 331.17 839.085 331.01 839.003 330.865 C 838.92 330.72 838.809 330.593 838.677 330.49 C 838.545 330.388 838.394 330.313 838.233 330.269 C 838.072 330.225 837.904 330.213 837.738 330.234 C 837.572 330.255 837.412 330.308 837.267 330.391 L 461.023 545.109 C 460.879 545.192 460.753 545.302 460.651 545.433 C 460.549 545.565 460.475 545.715 460.432 545.876 C 460.388 546.036 460.377 546.204 460.399 546.369 C 460.42 546.533 460.474 546.692 460.558 546.836 Z" fill="rgb(163,163,163)"></path><path d="M 449.255 543.678 C 449.373 543.848 449.53 543.987 449.713 544.083 C 449.896 544.178 450.099 544.228 450.305 544.229 C 450.558 544.229 450.805 544.156 451.016 544.017 L 826.566 289.897 C 826.714 289.809 826.842 289.691 826.943 289.55 C 827.044 289.41 827.115 289.251 827.152 289.083 C 827.19 288.914 827.192 288.74 827.16 288.57 C 827.127 288.4 827.061 288.239 826.964 288.096 C 826.867 287.953 826.742 287.832 826.596 287.739 C 826.451 287.646 826.288 287.583 826.118 287.555 C 825.947 287.527 825.773 287.534 825.606 287.576 C 825.438 287.618 825.281 287.693 825.143 287.798 L 449.594 541.909 C 449.455 542.003 449.336 542.123 449.244 542.262 C 449.152 542.402 449.088 542.559 449.057 542.723 C 449.025 542.888 449.027 543.057 449.061 543.221 C 449.095 543.385 449.161 543.54 449.255 543.678 Z" fill="rgb(163,163,163)"></path><path d="M 437.699 541.706 C 437.909 541.969 438.214 542.139 438.549 542.179 C 438.883 542.219 439.22 542.124 439.486 541.917 L 810.209 248.693 C 810.34 248.589 810.45 248.461 810.532 248.315 C 810.613 248.17 810.665 248.009 810.685 247.843 C 810.705 247.678 810.691 247.509 810.646 247.349 C 810.601 247.188 810.524 247.038 810.421 246.906 C 810.317 246.775 810.189 246.666 810.044 246.584 C 809.898 246.502 809.737 246.45 809.572 246.431 C 809.406 246.411 809.237 246.424 809.077 246.469 C 808.916 246.515 808.766 246.591 808.634 246.695 L 437.894 539.928 C 437.634 540.139 437.467 540.444 437.431 540.777 C 437.394 541.11 437.491 541.444 437.699 541.706 Z" fill="rgb(163,163,163)"></path><g opacity="0"><defs><radialGradient id="idss2809513483_31g-485034711" cy="0.5" cx="0.5" r="0.582" gradientTransform="translate(0.5, 0.5) scale(1 1.1804123711340209) translate(-0.5, -0.5)"><stop offset="0" stop-color="#ffffff" stop-opacity="1"></stop><stop offset="1" stop-color="rgba(255, 255, 255, 0)" stop-opacity="0"></stop></radialGradient></defs><path d="M 438.276 541.284 C 438.485 541.547 438.79 541.717 439.125 541.757 C 439.459 541.797 439.795 541.702 440.061 541.495 L 810.515 248.039 C 810.646 247.936 810.756 247.807 810.838 247.661 C 810.919 247.515 810.971 247.355 810.991 247.189 C 811.011 247.023 810.997 246.855 810.952 246.694 C 810.907 246.533 810.83 246.383 810.727 246.251 C 810.623 246.12 810.495 246.01 810.351 245.929 C 810.205 245.847 810.044 245.795 809.879 245.775 C 809.713 245.755 809.544 245.769 809.384 245.814 C 809.223 245.859 809.073 245.936 808.942 246.039 L 438.47 539.504 C 438.211 539.716 438.044 540.021 438.008 540.354 C 437.971 540.687 438.068 541.022 438.276 541.284 Z" fill="url(#idss2809513483_31g-485034711)"></path></g><path d="M 425.965 540.986 C 426.085 541.116 426.23 541.22 426.392 541.291 C 426.554 541.363 426.728 541.4 426.905 541.401 C 427.22 541.399 427.522 541.278 427.752 541.062 L 789.636 209.444 C 789.842 209.21 789.955 208.908 789.953 208.596 C 789.951 208.284 789.834 207.984 789.625 207.753 C 789.415 207.522 789.128 207.375 788.818 207.342 C 788.508 207.309 788.197 207.391 787.943 207.573 L 426.05 539.166 C 425.922 539.278 425.817 539.414 425.743 539.568 C 425.669 539.721 425.627 539.888 425.619 540.058 C 425.611 540.228 425.638 540.398 425.697 540.557 C 425.757 540.717 425.848 540.863 425.965 540.986 Z" fill="rgb(163,163,163)"></path><path d="M 414.231 541.443 C 414.477 541.675 414.805 541.8 415.143 541.79 C 415.481 541.781 415.802 541.638 416.034 541.392 L 765.085 172.514 C 765.308 172.268 765.425 171.945 765.412 171.613 C 765.4 171.281 765.257 170.967 765.016 170.739 C 764.774 170.511 764.453 170.386 764.121 170.392 C 763.789 170.398 763.472 170.534 763.239 170.77 L 414.189 539.648 C 413.956 539.892 413.83 540.218 413.838 540.555 C 413.846 540.891 413.988 541.211 414.231 541.443 Z" fill="rgb(163,163,163)"></path><path d="M 402.616 543.153 C 402.853 543.35 403.154 543.453 403.462 543.441 C 403.65 543.441 403.835 543.398 404.005 543.318 C 404.175 543.238 404.325 543.121 404.444 542.976 L 736.842 138.387 C 737.056 138.127 737.158 137.792 737.126 137.456 C 737.093 137.12 736.929 136.811 736.668 136.597 C 736.408 136.382 736.073 136.28 735.737 136.313 C 735.401 136.345 735.092 136.51 734.878 136.77 L 402.438 541.367 C 402.225 541.628 402.124 541.962 402.157 542.297 C 402.19 542.632 402.355 542.94 402.616 543.153 Z" fill="rgb(163,163,163)"></path><path d="M 391.229 546.066 C 391.443 546.219 391.701 546.302 391.965 546.303 C 392.168 546.303 392.369 546.254 392.55 546.161 C 392.731 546.069 392.887 545.934 393.006 545.769 L 705.11 107.401 C 705.306 107.126 705.384 106.785 705.327 106.452 C 705.271 106.12 705.085 105.823 704.81 105.628 C 704.535 105.432 704.194 105.354 703.861 105.411 C 703.528 105.467 703.232 105.653 703.036 105.928 L 390.932 544.296 C 390.737 544.57 390.659 544.911 390.714 545.242 C 390.77 545.574 390.955 545.87 391.229 546.066 Z" fill="rgb(163,163,163)"></path><path d="M 380.214 550.155 C 380.411 550.282 380.64 550.349 380.874 550.35 C 381.092 550.349 381.306 550.293 381.496 550.186 C 381.686 550.08 381.845 549.926 381.958 549.74 L 670.349 79.87 C 670.448 79.728 670.518 79.567 670.553 79.397 C 670.588 79.228 670.588 79.053 670.553 78.883 C 670.518 78.714 670.449 78.553 670.349 78.411 C 670.25 78.269 670.123 78.149 669.975 78.058 C 669.828 77.968 669.663 77.908 669.492 77.883 C 669.32 77.858 669.145 77.869 668.978 77.914 C 668.811 77.959 668.655 78.038 668.519 78.145 C 668.384 78.253 668.271 78.388 668.19 78.54 L 379.799 548.411 C 379.71 548.552 379.65 548.71 379.622 548.874 C 379.595 549.039 379.601 549.208 379.639 549.37 C 379.678 549.533 379.749 549.686 379.848 549.82 C 379.946 549.955 380.071 550.069 380.214 550.155 Z" fill="rgb(163,163,163)"></path><path d="M 369.682 555.379 C 369.864 555.478 370.068 555.531 370.275 555.531 C 370.507 555.53 370.735 555.465 370.933 555.344 C 371.132 555.224 371.293 555.051 371.401 554.845 L 632.911 56.19 C 632.998 56.042 633.054 55.878 633.076 55.708 C 633.097 55.538 633.084 55.365 633.037 55.2 C 632.99 55.035 632.91 54.881 632.802 54.748 C 632.694 54.615 632.561 54.505 632.409 54.425 C 632.257 54.345 632.091 54.296 631.92 54.282 C 631.749 54.268 631.577 54.289 631.415 54.343 C 631.252 54.397 631.102 54.483 630.973 54.597 C 630.845 54.711 630.741 54.849 630.668 55.005 L 369.124 553.685 C 368.976 553.984 368.951 554.33 369.056 554.646 C 369.16 554.963 369.385 555.226 369.682 555.379 Z" fill="rgb(163,163,163)"></path><path d="M 359.751 561.677 C 359.905 561.748 360.07 561.787 360.239 561.793 C 360.407 561.798 360.575 561.77 360.733 561.71 C 360.891 561.651 361.035 561.56 361.157 561.444 C 361.279 561.328 361.377 561.188 361.445 561.034 L 593.205 36.523 C 593.342 36.214 593.351 35.864 593.229 35.548 C 593.108 35.233 592.866 34.979 592.557 34.842 C 592.249 34.705 591.898 34.697 591.583 34.818 C 591.268 34.94 591.014 35.181 590.877 35.49 L 359.108 560.001 C 359.039 560.153 359.001 560.317 358.996 560.484 C 358.991 560.651 359.02 560.818 359.079 560.974 C 359.139 561.129 359.229 561.272 359.345 561.393 C 359.46 561.514 359.598 561.61 359.751 561.677 Z" fill="rgb(163,163,163)"></path><path d="M 350.498 568.984 C 350.639 569.033 350.788 569.059 350.938 569.06 C 351.2 569.059 351.456 568.977 351.669 568.826 C 351.883 568.674 352.045 568.46 352.132 568.213 L 551.662 21.114 C 551.732 20.955 551.768 20.782 551.769 20.608 C 551.769 20.433 551.734 20.26 551.665 20.1 C 551.595 19.94 551.494 19.796 551.366 19.676 C 551.239 19.557 551.088 19.466 550.923 19.407 C 550.759 19.349 550.584 19.325 550.41 19.337 C 550.236 19.35 550.066 19.398 549.911 19.478 C 549.757 19.559 549.62 19.671 549.511 19.807 C 549.401 19.943 549.321 20.1 549.274 20.268 L 349.778 567.358 C 349.662 567.669 349.672 568.014 349.806 568.318 C 349.941 568.622 350.189 568.861 350.498 568.984 Z" fill="rgb(163,163,163)"></path></g></g></svg>
