<svg xmlns="http://www.w3.org/2000/svg" width="88" height="88" fill="none"><path stroke="#A660FF" stroke-opacity=".12" d="M10 26V16a6 6 0 0 1 6-6h10m52 52v10a6 6 0 0 1-6 6H62m0-68h10a6 6 0 0 1 6 6v10M26 78H16a6 6 0 0 1-6-6V62"/><g filter="url(#a)"><path fill="url(#b)" d="M50.592 30.36c6.13-6.127 13.177.917 7.048 7.044-2.897 2.896-6.777 4.113-11.387 4.394a48.582 48.582 0 0 0-.11 2.202c-.02.721-.014 1.455.025 2.192 4.648.265 8.557 1.49 11.471 4.404 6.13 6.127-.918 13.171-7.047 7.045-2.972-2.971-4.204-7.278-4.424-11.449a36.733 36.733 0 0 0-4.361.016c-.276 4.625-1.495 8.517-4.4 11.42-6.128 6.127-13.176-.918-7.046-7.045 2.991-2.99 7.274-4.102 11.446-4.375a37.869 37.869 0 0 0 0-4.404c-4.635-.27-8.54-1.482-11.447-4.387-6.129-6.127.919-13.172 7.048-7.045 2.907 2.906 4.125 6.802 4.4 11.432.715.041 1.449.06 2.198.06.767 0 1.516-.021 2.247-.066.344-4.63 1.433-8.534 4.34-11.439z" shape-rendering="crispEdges"/></g><defs><linearGradient id="b" x1="44" x2="44" y1="28" y2="60" gradientUnits="userSpaceOnUse"><stop stop-color="#fff" stop-opacity=".8"/><stop offset="1" stop-color="#fff"/></linearGradient><filter id="a" width="48" height="64" x="20" y="24" color-interpolation-filters="sRGB" filterUnits="userSpaceOnUse"><feFlood flood-opacity="0" result="BackgroundImageFix"/><feColorMatrix in="SourceAlpha" result="hardAlpha" values="0 0 0 0 0 0 0 0 0 0 0 0 0 0 0 0 0 0 127 0"/><feOffset/><feComposite in2="hardAlpha" operator="out"/><feColorMatrix values="0 0 0 0 0.521569 0 0 0 0 0.129412 0 0 0 0 0.909804 0 0 0 0.52 0"/><feBlend in2="BackgroundImageFix" result="effect1_dropShadow_718_14886"/><feColorMatrix in="SourceAlpha" result="hardAlpha" values="0 0 0 0 0 0 0 0 0 0 0 0 0 0 0 0 0 0 127 0"/><feOffset dy="1"/><feGaussianBlur stdDeviation="1.5"/><feComposite in2="hardAlpha" operator="out"/><feColorMatrix values="0 0 0 0 0.706902 0 0 0 0 0.129412 0 0 0 0 0.909804 0 0 0 0.51 0"/><feBlend in2="effect1_dropShadow_718_14886" result="effect2_dropShadow_718_14886"/><feColorMatrix in="SourceAlpha" result="hardAlpha" values="0 0 0 0 0 0 0 0 0 0 0 0 0 0 0 0 0 0 127 0"/><feOffset dy="5"/><feGaussianBlur stdDeviation="2.5"/><feComposite in2="hardAlpha" operator="out"/><feColorMatrix values="0 0 0 0 0.660078 0 0 0 0 0.129412 0 0 0 0 0.909804 0 0 0 0.44 0"/><feBlend in2="effect2_dropShadow_718_14886" result="effect3_dropShadow_718_14886"/><feColorMatrix in="SourceAlpha" result="hardAlpha" values="0 0 0 0 0 0 0 0 0 0 0 0 0 0 0 0 0 0 127 0"/><feOffset dy="11"/><feGaussianBlur stdDeviation="3.5"/><feComposite in2="hardAlpha" operator="out"/><feColorMatrix values="0 0 0 0 0.566431 0 0 0 0 0.129412 0 0 0 0 0.909804 0 0 0 0.26 0"/><feBlend in2="effect3_dropShadow_718_14886" result="effect4_dropShadow_718_14886"/><feColorMatrix in="SourceAlpha" result="hardAlpha" values="0 0 0 0 0 0 0 0 0 0 0 0 0 0 0 0 0 0 127 0"/><feOffset dy="20"/><feGaussianBlur stdDeviation="4"/><feComposite in2="hardAlpha" operator="out"/><feColorMatrix values="0 0 0 0 0.706902 0 0 0 0 0.129412 0 0 0 0 0.909804 0 0 0 0.08 0"/><feBlend in2="effect4_dropShadow_718_14886" result="effect5_dropShadow_718_14886"/><feBlend in="SourceGraphic" in2="effect5_dropShadow_718_14886" result="shape"/><feColorMatrix in="SourceAlpha" result="hardAlpha" values="0 0 0 0 0 0 0 0 0 0 0 0 0 0 0 0 0 0 127 0"/><feOffset dy="-4"/><feGaussianBlur stdDeviation="6"/><feComposite in2="hardAlpha" k2="-1" k3="1" operator="arithmetic"/><feColorMatrix values="0 0 0 0 0.521569 0 0 0 0 0.129412 0 0 0 0 0.909804 0 0 0 0.25 0"/><feBlend in2="shape" result="effect6_innerShadow_718_14886"/><feColorMatrix in="SourceAlpha" result="hardAlpha" values="0 0 0 0 0 0 0 0 0 0 0 0 0 0 0 0 0 0 127 0"/><feOffset dy="-1"/><feGaussianBlur stdDeviation=".5"/><feComposite in2="hardAlpha" k2="-1" k3="1" operator="arithmetic"/><feColorMatrix values="0 0 0 0 0.521569 0 0 0 0 0.129412 0 0 0 0 0.909804 0 0 0 0.4 0"/><feBlend in2="effect6_innerShadow_718_14886" result="effect7_innerShadow_718_14886"/></filter></defs></svg>